<?xml version="1.0" encoding="UTF-8" standalone="no"?>
<!-- Generator: Adobe Illustrator 19.1.0, SVG Export Plug-In . SVG Version: 6.00 Build 0)  -->

<svg
   xmlns:dc="http://purl.org/dc/elements/1.1/"
   xmlns:cc="http://creativecommons.org/ns#"
   xmlns:rdf="http://www.w3.org/1999/02/22-rdf-syntax-ns#"
   xmlns:svg="http://www.w3.org/2000/svg"
   xmlns="http://www.w3.org/2000/svg"
   xmlns:sodipodi="http://sodipodi.sourceforge.net/DTD/sodipodi-0.dtd"
   xmlns:inkscape="http://www.inkscape.org/namespaces/inkscape"
   version="1.1"
   id="Ebene_1"
   x="0px"
   y="0px"
   viewBox="0 0 584.99998 169.7"
   xml:space="preserve"
   sodipodi:docname="Logo_MFGT_quer_RGB.svg"
   width="585"
   height="169.7"
   inkscape:version="0.92.1 r15371"><metadata
     id="metadata67"><rdf:RDF><cc:Work
         rdf:about=""><dc:format>image/svg+xml</dc:format><dc:type
           rdf:resource="http://purl.org/dc/dcmitype/StillImage" /><dc:title></dc:title></cc:Work></rdf:RDF></metadata><defs
     id="defs65" /><sodipodi:namedview
     pagecolor="#ffffff"
     bordercolor="#666666"
     borderopacity="1"
     objecttolerance="10"
     gridtolerance="10"
     guidetolerance="10"
     inkscape:pageopacity="0"
     inkscape:pageshadow="2"
     inkscape:window-width="1804"
     inkscape:window-height="1111"
     id="namedview63"
     showgrid="false"
     fit-margin-top="0"
     fit-margin-left="0"
     fit-margin-right="0"
     fit-margin-bottom="0"
     inkscape:zoom="0.39643878"
     inkscape:cx="340.79493"
     inkscape:cy="53.950006"
     inkscape:window-x="0"
     inkscape:window-y="55"
     inkscape:window-maximized="0"
     inkscape:current-layer="Ebene_1" /><style
     type="text/css"
     id="style2">
	.st0{fill:#003863;}
	.st1{fill-rule:evenodd;clip-rule:evenodd;fill:#009EE0;}
</style><g
     id="g12"
     transform="translate(-85.2,-181.9)"><path
       class="st0"
       d="m 328.1,334.9 v -25.8 c 0,-2.6 -0.7,-7 -5.5,-7 -3,0 -5.3,1.9 -6,5 V 335 h -13 v -25.8 c 0,-2.6 -0.7,-7 -5.4,-7 -3,0 -5.4,2 -6.1,5 v 27.9 h -12.9 v -43.6 h 12.9 v 2.6 c 2.4,-2.3 6.1,-3.6 10.2,-3.6 4.6,0 8.7,1.9 11.4,5.1 3.3,-3.4 7.6,-5.1 12.8,-5.1 9,0 14.5,6.2 14.5,16.2 V 335 h -12.9 z"
       id="path4"
       inkscape:connector-curvature="0"
       style="fill:#003863" /><path
       class="st0"
       d="m 353,334.9 v -33 h -7 v -10.6 h 6.9 v -4.5 c 0,-9.7 6,-15.7 15.6,-15.7 2.8,0 5,0.4 6.8,1.2 l 0.3,0.1 V 284 l -0.9,-0.6 c -1,-0.7 -2.3,-1 -3.9,-1 -3.4,0 -5.2,1.8 -5.2,5.3 v 3.7 h 8.8 V 302 h -8.8 v 33 H 353 Z"
       id="path6"
       inkscape:connector-curvature="0"
       style="fill:#003863" /><path
       class="st0"
       d="m 448.6,335.6 c -9.6,0 -15.6,-6 -15.6,-15.7 v -18.1 h -7.7 v -10.6 h 7.7 v -11.4 h 12.7 v 11.4 h 8.8 v 10.6 h -8.8 v 17.4 c 0,3.5 1.8,5.3 5.2,5.3 1.6,0 2.9,-0.3 3.9,-1 l 0.9,-0.6 v 11.4 l -0.3,0.1 c -1.9,0.9 -4,1.2 -6.8,1.2 z"
       id="path8"
       inkscape:connector-curvature="0"
       style="fill:#003863" /><path
       class="st0"
       d="m 396.1,351.6 c -5.7,0 -11.3,-1.4 -14.9,-3.7 l -0.3,-0.2 v -13.1 l 0.9,0.8 c 4,3.5 8.4,5.1 14.1,5.1 6.8,0 10.9,-3.6 10.9,-9.6 -2.1,1.8 -5.5,3.5 -9.8,3.5 -11.6,0 -19.8,-9 -19.8,-21.9 0,-13 8.1,-22 19.8,-22 4.3,0 7.7,1.7 9.8,3.5 v -2.5 h 12.9 v 38.4 c 0.1,15.9 -12.1,21.7 -23.6,21.7 z m 3.4,-50.2 c -5.7,0 -9.3,4.3 -9.3,11 0,6.6 3.7,10.9 9.3,10.9 3.1,0 6,-1.6 7.3,-4 v -14.1 c -1.1,-1.8 -3.8,-3.8 -7.3,-3.8 z"
       id="path10"
       inkscape:connector-curvature="0"
       style="fill:#003863" /></g><g
     id="g58"
     transform="translate(-85.2,-181.9)"><path
       class="st0"
       d="m 496.5,293 c 2.6,0 4.1,1.8 4.1,4.6 v 8.5 h -2.2 v -8.2 c 0,-1.8 -0.8,-3 -2.4,-3 -1.3,0 -2.4,0.9 -2.8,2.3 v 8.9 H 491 v -8.2 c 0,-1.8 -0.8,-3 -2.4,-3 -1.3,0 -2.4,0.9 -2.8,2.3 v 8.9 h -2.2 v -12.9 h 2.2 v 1.5 c 0.6,-1 1.9,-1.8 3.5,-1.8 1.6,0 2.9,0.8 3.5,2.1 0.6,-1.1 1.9,-2 3.7,-2 z"
       id="path14"
       inkscape:connector-curvature="0"
       style="fill:#003863" /><path
       class="st0"
       d="m 509.2,306.4 c -3.5,0 -5.9,-2.8 -5.9,-6.7 0,-3.9 2.4,-6.7 5.9,-6.7 3.5,0 5.9,2.8 5.9,6.7 0,3.9 -2.4,6.7 -5.9,6.7 z m 0,-11.5 c -2.3,0 -3.7,2 -3.7,4.8 0,2.8 1.4,4.8 3.7,4.8 2.3,0 3.7,-2 3.7,-4.8 0,-2.8 -1.4,-4.8 -3.7,-4.8 z"
       id="path16"
       inkscape:connector-curvature="0"
       style="fill:#003863" /><path
       class="st0"
       d="m 521.4,306.1 h -2.2 v -11 h -2.7 v -1.9 h 2.7 v -3.4 h 2.2 v 3.4 h 3 v 1.9 h -3 z"
       id="path18"
       inkscape:connector-curvature="0"
       style="fill:#003863" /><path
       class="st0"
       d="m 531.8,306.4 c -3.5,0 -5.9,-2.8 -5.9,-6.7 0,-3.9 2.4,-6.7 5.9,-6.7 3.5,0 5.9,2.8 5.9,6.7 0,3.9 -2.4,6.7 -5.9,6.7 z m 0,-11.5 c -2.3,0 -3.7,2 -3.7,4.8 0,2.8 1.4,4.8 3.7,4.8 2.3,0 3.7,-2 3.7,-4.8 0,-2.8 -1.4,-4.8 -3.7,-4.8 z"
       id="path20"
       inkscape:connector-curvature="0"
       style="fill:#003863" /><path
       class="st0"
       d="m 547.3,295.4 c -0.3,-0.2 -0.9,-0.3 -1.4,-0.3 -1.4,0 -2.5,0.9 -3,2.4 v 8.6 h -2.2 v -12.9 h 2.2 v 1.7 c 0.6,-1.1 1.8,-1.9 3.2,-1.9 0.6,0 1,0.1 1.2,0.2 z"
       id="path22"
       inkscape:connector-curvature="0"
       style="fill:#003863" /><path
       class="st0"
       d="M 556.4,289.3 C 556,289 555.5,289 555,289 c -1.3,0 -2.1,0.8 -2.1,2.3 v 2 h 2.9 v 1.9 h -2.9 v 11 h -2.1 v -11 h -2.2 v -1.9 h 2.2 v -2.1 c 0,-2.6 1.7,-4.1 3.9,-4.1 0.7,0 1.2,0.1 1.7,0.3 z"
       id="path24"
       inkscape:connector-curvature="0"
       style="fill:#003863" /><path
       class="st0"
       d="m 560.5,306.1 h -2.2 v -18.8 h 2.2 z"
       id="path26"
       inkscape:connector-curvature="0"
       style="fill:#003863" /><path
       class="st0"
       d="m 574.7,306.1 h -2.2 v -1.6 c -0.7,1 -2.1,1.9 -3.7,1.9 -2.9,0 -4.5,-1.9 -4.5,-4.7 v -8.4 h 2.2 v 8.1 c 0,1.8 0.9,3 2.8,3 1.5,0 2.8,-1 3.2,-2.4 v -8.7 h 2.2 z"
       id="path28"
       inkscape:connector-curvature="0"
       style="fill:#003863" /><path
       class="st0"
       d="m 586.9,304.4 c -0.6,0.9 -2,1.7 -3.6,1.7 -3.8,0 -5.7,-3.1 -5.7,-6.6 0,-3.5 2,-6.6 5.7,-6.6 1.6,0 3,0.8 3.6,1.7 v -1.4 h 2.2 v 11.9 c 0,4.5 -3.2,6.2 -6.3,6.2 -1.7,0 -3.2,-0.5 -4.1,-1.2 v -2.4 c 1.3,1.2 2.6,1.6 4.1,1.6 2.3,0 4.1,-1.4 4.1,-4.1 z m 0,-7.5 c -0.7,-1.2 -1.9,-2 -3.3,-2 -2.4,0 -3.9,1.9 -3.9,4.6 0,2.7 1.4,4.6 3.9,4.6 1.4,0 2.6,-0.8 3.3,-2 z"
       id="path30"
       inkscape:connector-curvature="0"
       style="fill:#003863" /><path
       class="st0"
       d="m 601.4,304.4 c -0.6,0.9 -2,1.7 -3.6,1.7 -3.8,0 -5.7,-3.1 -5.7,-6.6 0,-3.5 2,-6.6 5.7,-6.6 1.6,0 3,0.8 3.6,1.7 v -1.4 h 2.2 v 11.9 c 0,4.5 -3.2,6.2 -6.3,6.2 -1.7,0 -3.2,-0.5 -4.1,-1.2 v -2.4 c 1.3,1.2 2.6,1.6 4.1,1.6 2.3,0 4.1,-1.4 4.1,-4.1 z m 0,-7.5 c -0.7,-1.2 -1.9,-2 -3.3,-2 -2.4,0 -3.9,1.9 -3.9,4.6 0,2.7 1.4,4.6 3.9,4.6 1.4,0 2.6,-0.8 3.3,-2 z"
       id="path32"
       inkscape:connector-curvature="0"
       style="fill:#003863" /><path
       class="st0"
       d="m 614.1,295.4 c -0.3,-0.2 -0.9,-0.3 -1.4,-0.3 -1.4,0 -2.5,0.9 -3,2.4 v 8.6 h -2.2 v -12.9 h 2.2 v 1.7 c 0.6,-1.1 1.8,-1.9 3.2,-1.9 0.6,0 1,0.1 1.2,0.2 z"
       id="path34"
       inkscape:connector-curvature="0"
       style="fill:#003863" /><path
       class="st0"
       d="m 627,306.1 h -2.2 v -1.6 c -0.7,1 -2.1,1.9 -3.7,1.9 -2.9,0 -4.5,-1.9 -4.5,-4.7 v -8.4 h 2.2 v 8.1 c 0,1.8 0.9,3 2.8,3 1.5,0 2.8,-1 3.2,-2.4 v -8.7 h 2.2 z"
       id="path36"
       inkscape:connector-curvature="0"
       style="fill:#003863" /><path
       class="st0"
       d="m 633.1,311 h -2.2 v -17.8 h 2.2 v 1.5 c 0.7,-0.9 2,-1.8 3.6,-1.8 3.8,0 5.8,3.1 5.8,6.7 0,3.6 -2,6.7 -5.8,6.7 -1.6,0 -3,-0.8 -3.6,-1.8 z m 0,-8.7 c 0.7,1.3 1.9,2.1 3.3,2.1 2.5,0 3.9,-2 3.9,-4.7 0,-2.7 -1.4,-4.7 -3.9,-4.7 -1.4,0 -2.6,0.8 -3.3,2.1 z"
       id="path38"
       inkscape:connector-curvature="0"
       style="fill:#003863" /><path
       class="st0"
       d="m 647.6,311 h -2.2 v -17.8 h 2.2 v 1.5 c 0.7,-0.9 2,-1.8 3.6,-1.8 3.8,0 5.8,3.1 5.8,6.7 0,3.6 -2,6.7 -5.8,6.7 -1.6,0 -3,-0.8 -3.6,-1.8 z m 0,-8.7 c 0.7,1.3 1.9,2.1 3.3,2.1 2.5,0 3.9,-2 3.9,-4.7 0,-2.7 -1.4,-4.7 -3.9,-4.7 -1.4,0 -2.6,0.8 -3.3,2.1 z"
       id="path40"
       inkscape:connector-curvature="0"
       style="fill:#003863" /><path
       class="st0"
       d="m 661.3,300.1 c 0.1,3 2,4.4 4.3,4.4 1.4,0 2.5,-0.3 3.7,-1.2 v 2 c -1,0.8 -2.4,1.1 -3.9,1.1 -3.7,0 -6.2,-2.5 -6.2,-6.6 0,-4 2.3,-6.8 5.7,-6.8 3.5,0 5.3,2.5 5.3,6.3 v 0.8 z m 0.1,-1.8 h 6.6 c -0.1,-1.9 -1,-3.5 -3.1,-3.5 -1.7,0 -3.1,1.2 -3.5,3.5 z"
       id="path42"
       inkscape:connector-curvature="0"
       style="fill:#003863" /><path
       class="st0"
       d="m 487,334.8 h -2.2 v -11 h -2.7 v -1.9 h 2.7 v -3.4 h 2.2 v 3.4 h 3 v 1.9 h -3 z"
       id="path44"
       inkscape:connector-curvature="0"
       style="fill:#003863" /><path
       class="st0"
       d="m 492.6,316 h 2.2 v 7.6 c 0.8,-1 2.1,-1.9 3.8,-1.9 2.9,0 4.5,1.9 4.5,4.7 v 8.4 h -2.2 v -8.1 c 0,-1.8 -0.9,-3 -2.8,-3 -1.5,0 -2.8,1 -3.3,2.4 v 8.7 h -2.2 z"
       id="path46"
       inkscape:connector-curvature="0"
       style="fill:#003863" /><path
       class="st0"
       d="m 517.1,334.8 h -2.2 v -1.6 c -0.7,1 -2.1,1.9 -3.7,1.9 -2.9,0 -4.5,-1.9 -4.5,-4.7 V 322 h 2.2 v 8.1 c 0,1.8 0.9,3 2.8,3 1.5,0 2.8,-1 3.2,-2.4 V 322 h 2.2 z"
       id="path48"
       inkscape:connector-curvature="0"
       style="fill:#003863" /><path
       class="st0"
       d="m 527.5,324.1 c -0.3,-0.2 -0.9,-0.3 -1.4,-0.3 -1.4,0 -2.5,0.9 -3,2.4 v 8.6 h -2.2 v -12.9 h 2.2 v 1.7 c 0.6,-1.1 1.8,-1.9 3.2,-1.9 0.6,0 1,0.1 1.2,0.2 z"
       id="path50"
       inkscape:connector-curvature="0"
       style="fill:#003863" /><path
       class="st0"
       d="m 538.3,333.1 c -0.6,0.9 -2,1.7 -3.6,1.7 -3.8,0 -5.7,-3.1 -5.7,-6.6 0,-3.5 2,-6.6 5.7,-6.6 1.6,0 3,0.8 3.6,1.7 v -1.4 h 2.2 v 11.9 c 0,4.5 -3.2,6.2 -6.3,6.2 -1.7,0 -3.2,-0.5 -4.1,-1.2 v -2.4 c 1.3,1.2 2.6,1.6 4.1,1.6 2.3,0 4.1,-1.4 4.1,-4.1 z m 0,-7.5 c -0.7,-1.2 -1.9,-2 -3.3,-2 -2.4,0 -3.9,1.9 -3.9,4.6 0,2.7 1.4,4.6 3.9,4.6 1.4,0 2.6,-0.8 3.3,-2 z"
       id="path52"
       inkscape:connector-curvature="0"
       style="fill:#003863" /><path
       class="st0"
       d="m 551.6,326.2 c 0,-1.6 -1.2,-2.6 -3.1,-2.6 -1.4,0 -2.6,0.4 -3.7,1.1 v -2.1 c 0.9,-0.6 2.4,-1.1 4,-1.1 3,0 4.8,1.7 4.8,4.4 v 8.7 h -2.1 v -1 c -0.5,0.5 -1.8,1.2 -3.3,1.2 -2.6,0 -4.8,-1.6 -4.8,-4.1 0,-2.4 2.1,-4 4.9,-4 1.3,0 2.7,0.6 3.2,1 v -1.5 z m 0,4.1 c -0.3,-1 -1.6,-1.6 -3,-1.6 -1.6,0 -3.1,0.7 -3.1,2.2 0,1.6 1.5,2.3 3.1,2.3 1.4,0 2.6,-0.6 3,-1.6 z"
       id="path54"
       inkscape:connector-curvature="0"
       style="fill:#003863" /><path
       class="st0"
       d="m 567.6,334.8 h -2.2 v -1.6 c -0.7,1 -2.1,1.9 -3.7,1.9 -2.9,0 -4.5,-1.9 -4.5,-4.7 V 322 h 2.2 v 8.1 c 0,1.8 0.9,3 2.8,3 1.5,0 2.8,-1 3.2,-2.4 V 322 h 2.2 z"
       id="path56"
       inkscape:connector-curvature="0"
       style="fill:#003863" /></g><path
     class="st1"
     d="m 376.6,0 c 1.1,0 1.1,0.3 1.6,0.7 0.1,0 0.1,0.1 0.2,0.2 0.1,0.1 0.7,0.1 0.9,0.1 0.1,0.1 0.1,0.1 0.1,0.3 -0.1,0 -0.2,0.1 -0.2,0.1 -0.2,0 -0.3,0 -0.5,0 -0.2,-0.3 -0.5,-0.6 -1.1,-0.6 -0.1,0.1 -0.3,0.1 -0.4,0.1 -0.2,0.1 -0.5,0.4 -0.9,0.2 -0.2,0 -0.3,-0.1 -0.4,-0.2 0,-0.2 -0.1,-0.3 0,-0.5 0,-0.1 0.1,-0.2 0.3,-0.2 0.1,-0.1 0.3,-0.1 0.4,-0.2 z m 0.3,1.6 c 0.1,0 0.2,0.1 0.3,0.2 0.2,0.2 0.1,0.6 0,0.8 -0.1,0.1 -0.1,0.1 -0.3,0.1 -0.1,-0.1 -0.1,0 -0.2,-0.1 -0.3,-0.3 0,-0.8 0.2,-1 z m -2.5,0.6 c 0.1,0 0.1,0 0.2,0 0.4,0.5 0,0.5 -0.1,0.9 0.1,0.1 0.1,0.1 0.2,0.2 0.2,0.1 0.5,0.1 0.7,0.3 0.2,0.2 0.3,1.1 0.2,1.4 -0.1,0 -0.3,0.1 -0.4,0.1 -0.2,0.1 -0.2,0.4 -0.4,0.6 -0.2,0.2 -0.6,0.6 -0.9,0.8 -0.2,0.1 -0.3,0.3 -0.5,0.3 -0.2,0.1 -0.5,0.1 -0.6,0.2 -0.3,0.2 -0.2,0.6 -0.6,0.8 -0.3,0.2 -1,0 -1.4,0.1 -0.3,0.1 -1.3,0.6 -1.4,0.7 -0.1,0.2 0.1,0.5 -0.1,0.8 -0.5,0.4 -1.1,0.9 -1.6,1.3 -0.3,0.1 -0.6,0.2 -0.8,0.3 -0.3,0.2 -0.5,0.4 -0.8,0.6 -0.5,0.4 -1.1,1.2 -1.9,1.2 -0.1,0 -0.1,0 -0.2,0 -0.1,-0.1 -0.2,-0.1 -0.3,-0.2 -0.1,-0.8 0.6,-0.7 0.4,-1.5 -0.1,0 -0.1,0 -0.2,-0.1 -0.3,0 -0.4,0 -0.6,0.1 -0.1,0.1 -0.2,0.2 -0.2,0.2 -0.1,0.2 0,0.4 -0.5,0.4 -0.2,-0.2 -0.2,-0.3 -0.3,-0.5 -0.2,-0.2 -0.5,-0.4 -0.6,-0.6 -0.2,-0.4 0,-1 0.4,-1.1 0.1,0 0.4,0 0.4,0 0.2,0.1 0.4,0.3 0.6,0.3 0.4,0.1 0.8,0 1,0.2 0.2,0.2 0.1,0.5 0.3,0.6 0.2,0.1 0.5,0 0.7,0 0.1,-0.1 0.2,-0.2 0.2,-0.4 0.1,-0.3 0,-0.5 0.1,-0.8 0.4,-0.5 1.1,-0.8 1.5,-1.3 0.2,-0.2 0.1,-0.8 0.2,-1.1 0.1,-0.1 0.2,-0.1 0.3,-0.2 0.2,-0.1 0.4,-0.1 0.6,-0.2 0.2,-0.1 0.3,-0.2 0.5,-0.2 0.2,0 0.4,0 0.7,0 0.2,-0.3 0.1,-0.9 0.5,-1.1 0.2,-0.1 0.8,-0.1 1.2,-0.1 0.8,0 1.8,0 2.5,-0.2 0.1,-0.2 0.6,-0.9 0.5,-1.2 -0.1,-0.2 -0.3,-0.3 -0.3,-0.7 0.1,-0.1 0.2,-0.3 0.4,-0.4 0,0 0.1,0 0.1,-0.1 0.2,0.1 0.1,-0.1 0.3,-0.4 z m -10.1,5.3 c 0.5,0 1,0 1.4,0 0.3,0.3 0.3,0.3 0.2,0.8 -0.6,0.3 -1.4,0.3 -1.8,0 -0.2,-0.1 -0.6,-0.5 -0.1,-0.6 0,-0.1 0.2,-0.1 0.3,-0.2 z m -3.7,0.4 c 0.6,0 1.5,0.6 1.5,1 -0.6,0.6 -2.1,0.2 -2.1,-0.5 0.1,-0.1 0.2,-0.2 0.3,-0.3 0.1,-0.2 0.2,-0.2 0.3,-0.2 z m -3.3,0.4 c 0.2,0 0.4,0 0.5,0.1 0.1,0.1 0.2,0.2 0.3,0.2 0,0.2 0.1,0.3 0,0.4 -0.1,0.3 -0.8,0.3 -1,0.6 -0.1,0.2 -0.1,0.4 -0.3,0.5 -0.1,0.1 -0.1,0.1 -0.3,0.1 -0.3,-0.1 -1.2,-0.5 -0.8,-0.9 0.1,-0.3 0.5,-0.3 0.9,-0.4 0.2,-0.1 0.3,-0.3 0.5,-0.4 0,-0.2 0.1,-0.2 0.2,-0.2 z m 1.6,0.6 c 0.1,0 0.1,0 0.2,0 0.1,0.1 0.3,0.4 0,0.5 -0.1,0 -0.1,0 -0.2,0 -0.3,-0.2 -0.3,-0.3 0,-0.5 z m -4.7,0.4 c 0.1,0 0.1,0 0.2,0 0,0.1 0,0.1 0,0.2 -0.1,0.1 -0.1,0.2 -0.2,0.3 -0.2,0.1 -0.6,0.1 -0.7,-0.1 -0.1,-0.1 0,-0.1 0,-0.2 0.1,-0.1 0.2,-0.1 0.4,-0.2 0.1,0 0.2,0.1 0.3,0 z m 2.5,1.9 c 0.1,0 0.3,0 0.4,0 0.2,0 0.2,0.1 0.2,0.3 -0.1,0 -0.1,0.1 -0.2,0.1 -0.2,0 -0.3,0 -0.5,0 -0.1,-0.2 0,-0.3 0.1,-0.4 z m -2.6,0.2 c 0.1,0 0.1,0 0.2,0 0,0 0.1,0.1 0.2,0.1 0,0.1 0.1,0.2 0,0.3 0,0.1 -0.1,0.1 -0.2,0.1 -0.2,0.1 -0.2,-0.1 -0.3,-0.1 0,-0.1 -0.1,-0.2 0,-0.3 0,0 0,0 0.1,-0.1 z m -150,71.8 c 0,-0.2 0,-0.5 0,-0.7 0.1,-0.2 0.2,-0.2 0.2,-0.5 -0.4,-0.2 -1,-0.1 -1.3,-0.3 -0.2,-0.1 -0.7,-0.4 -0.8,-0.6 -0.1,-0.2 -0.1,-0.4 -0.4,-0.5 -0.1,0 -0.2,0 -0.3,0 0,0 0,0 0,0.1 -0.2,0.2 0.3,0.4 0.2,0.8 -0.1,0.3 -0.4,0.4 -0.5,0.6 -0.1,0.4 0.3,0.6 0.5,0.8 0.2,0.2 0.2,0.7 0.3,0.9 0,0 -0.1,0 -0.1,0 -0.1,0.1 -1,0.3 -1.1,0.2 -0.2,-0.1 -0.2,-0.4 -0.4,-0.5 -0.2,-0.2 -0.4,-0.3 -0.5,-0.6 -0.1,-0.4 0.2,-0.5 0.2,-0.9 -0.2,-0.1 -0.6,-0.1 -0.7,-0.3 -0.1,-0.2 -0.2,-0.4 -0.3,-0.6 -0.1,-0.1 -0.3,-0.3 -0.3,-0.4 0,-0.1 0.1,-0.3 0.1,-0.5 -0.1,0 -0.2,-0.1 -0.2,-0.1 -0.1,0 -0.1,0 -0.2,0 -0.1,0 -0.1,0.1 -0.2,0.1 -0.1,0.2 -0.1,1 0,1.2 0.1,0.3 0.4,0.3 0.2,0.7 -0.2,0.1 -0.4,0.1 -0.6,0.2 -0.2,0.1 -0.3,0.2 -0.5,0.3 -0.2,0.1 -0.5,0.2 -0.7,0.2 -0.3,0.2 -0.2,0.5 -0.6,0.6 -0.2,0.1 -0.3,0 -0.5,0 -0.4,-0.1 -0.6,0.1 -0.9,0.1 -0.6,-0.7 0.6,-1 0.3,-1.8 -0.2,-0.6 -1.3,-0.7 -1.3,-1.4 0.1,-0.1 0.1,-0.2 0.1,-0.2 0.1,-0.2 0.4,-0.3 0.5,-0.5 0.1,-0.2 0.1,-0.3 0.2,-0.5 0.1,-0.2 0.4,-0.2 0.5,-0.5 -0.3,-0.1 -0.4,-0.4 -0.9,-0.4 -0.4,0.3 -0.9,0.5 -1.2,0.9 -0.1,0.1 -0.2,0.2 -0.2,0.4 0.1,0.4 0.6,0.4 0.7,0.9 -0.1,0.1 -0.2,0.3 -0.3,0.4 -0.3,0.1 -0.6,0.2 -0.8,0.3 -0.4,0.3 -0.7,0.6 -1.1,0.9 -0.2,0.3 -0.2,0.7 -0.6,0.8 -0.1,0.1 -1.1,0.2 -1.5,0.1 -0.1,0 -0.3,0 -0.4,-0.1 -0.3,-0.2 -0.7,-0.5 -1,-0.7 -0.2,-0.1 -0.4,-0.2 -0.5,-0.4 -0.2,-0.3 0.1,-0.9 -0.4,-1 -0.2,-0.1 -0.6,0 -0.8,0 -0.1,0.2 -0.4,0.4 -0.5,0.6 -0.1,0.3 -0.1,0.6 -0.4,0.7 -0.3,0.2 -0.9,0.1 -1.3,0.1 -0.1,-0.1 -0.2,-0.1 -0.3,-0.2 0,-0.2 -0.1,-0.4 0,-0.6 0.1,-0.2 0.5,-0.4 0.3,-0.7 -0.1,-0.3 -0.5,-0.2 -0.8,-0.3 -0.3,-0.1 -0.3,-0.4 -0.4,-0.6 -0.1,-0.1 -0.2,-0.2 -0.3,-0.3 -0.2,-0.3 0.2,-0.6 0.3,-0.9 0.3,-1 -1.2,-0.9 -2,-0.7 -0.2,0.2 -0.3,0.6 -0.6,0.8 -0.2,0.1 -0.5,0.1 -0.7,0.2 -0.2,0.1 -0.3,0.3 -0.6,0.2 -0.2,0 -0.4,-0.2 -0.6,-0.2 -0.4,-0.1 -0.8,0 -1.1,0.1 -0.1,0.1 -0.2,0.1 -0.2,0.2 -0.1,0.2 -0.1,0.3 -0.2,0.5 -0.2,0.2 -0.4,0.3 -0.6,0.4 -0.2,0 -0.3,0.1 -0.4,0 -0.1,0 -0.3,-0.1 -0.4,-0.1 -0.5,0.1 -0.6,0.6 -1.2,0.6 -0.1,-0.1 -0.1,-0.1 -0.2,-0.2 -0.2,-0.2 -0.1,-0.5 -0.2,-0.7 -0.3,-0.6 -0.9,-0.7 -1.9,-0.7 -0.3,0 -0.6,0 -0.8,0.1 -0.2,0.1 -0.5,0.4 -0.5,0.6 -0.1,0.2 0.1,0.3 -0.2,0.4 -0.2,-0.1 -0.7,0 -1,-0.1 -0.4,-0.1 -0.7,-0.5 -1,-0.6 -0.1,-0.1 -0.2,-0.1 -0.3,-0.1 -0.5,0 -0.7,0.2 -1.1,0.3 -0.1,-0.1 -0.2,-0.1 -0.3,-0.2 0,-0.5 0.3,-0.6 0.4,-1 0.1,-0.4 -0.8,-0.8 -1,-1 -0.2,-0.2 0,-0.5 -0.1,-0.7 -0.2,-0.1 -1.1,-0.2 -1.2,0.1 -0.2,0.2 -0.1,0.5 -0.3,0.7 -0.2,0.3 -0.7,0.5 -0.9,0.8 -0.2,0.3 0,0.5 -0.6,0.6 -0.3,-0.2 -0.6,-0.4 -0.9,-0.6 -0.2,-0.2 -0.5,-0.3 -0.7,-0.5 -0.2,-0.1 -0.6,-0.1 -0.8,-0.2 -0.1,-0.1 -0.2,-0.1 -0.2,-0.2 -0.4,-0.2 -0.9,0 -1,-0.4 0.2,-0.2 0.3,-0.4 0.3,-0.6 0,-0.2 0,-0.3 0,-0.5 0.1,-0.2 0.4,-0.6 0.3,-0.8 0,-0.1 -0.2,-0.2 -0.3,-0.4 -0.1,-0.2 -0.1,-0.3 -0.3,-0.4 -0.3,-0.1 -0.7,0.2 -1.1,0.2 -0.6,0.1 -0.9,-0.1 -1.3,-0.2 -0.5,-0.1 -0.7,0.4 -1.4,0.2 -0.4,-0.4 0.3,-0.5 0.1,-0.9 -0.1,-0.4 -0.6,-0.5 -0.9,-0.7 -0.7,0 -0.6,0.2 -1.1,0.4 -0.4,0.2 -1,0.1 -1.4,0.2 -0.1,0.1 -0.3,0.2 -0.4,0.3 -0.2,0.1 -0.4,0.1 -0.6,0.2 -0.3,0.1 -0.4,0.3 -0.6,0.4 -0.5,0.2 -1.5,0.1 -1.9,0.1 -0.1,-0.1 -0.2,-0.1 -0.2,-0.2 -0.3,-0.3 0.1,-0.7 0.1,-1 -0.1,0 -0.2,-0.1 -0.3,-0.1 -0.3,0 -0.5,0 -0.8,0 -0.3,-0.1 -0.4,-0.2 -0.6,-0.3 -0.3,-0.1 -1.3,-0.1 -1.7,0 -0.3,0.1 -0.4,0.3 -0.7,0.4 -0.3,0.1 -1.3,0.2 -1.8,0.2 0,0 0,0 0,0 -0.1,-0.5 -0.4,-0.8 -1,-0.9 -0.2,-0.1 -0.4,0 -0.6,-0.1 -0.2,-0.1 -0.6,-0.4 -0.7,-0.6 -0.1,-0.2 -0.1,-0.4 -0.2,-0.5 -0.1,-0.2 -0.4,-0.3 -0.5,-0.5 -0.5,-1.2 1.5,-1.4 0.9,-2.4 -0.1,0 0,0 -0.1,0 -0.2,0.1 -0.3,0.2 -0.6,0.3 -0.3,-0.2 -1.1,-0.4 -1.7,-0.2 -0.2,0.1 -0.4,0.3 -0.6,0.4 -0.2,0.1 -0.4,0.1 -0.7,0.2 -0.2,0.1 -0.3,0.2 -0.5,0.3 -0.2,0.1 -0.4,0.1 -0.6,0.2 -0.4,0.2 -0.5,0.4 -1.2,0.5 -0.2,-0.1 -0.4,-0.1 -0.5,-0.3 -0.2,-0.2 -0.1,-0.7 -0.3,-0.9 -0.2,-0.2 -1,-0.2 -1.4,-0.1 -0.1,0 -0.2,0.2 -0.4,0.2 -0.1,0 -0.2,0 -0.4,0 -0.1,-0.1 -0.2,-0.3 -0.2,-0.4 0,-0.2 0,-0.3 -0.1,-0.5 -0.1,-0.2 -0.5,-0.5 -0.7,-0.6 -0.4,-0.2 -1.7,0.1 -2,-0.2 -0.2,-0.1 0,-0.3 0.1,-0.5 0.3,-0.4 0.2,-1.4 0,-2 -0.1,0 -0.2,-0.1 -0.3,-0.1 -0.5,0 -1,0.4 -1.2,0.2 -0.3,-0.1 -0.5,-0.3 -0.6,-0.5 0,0 0,-0.1 0.1,-0.1 0.2,-0.1 0.5,-0.2 0.7,-0.3 0.2,-0.1 0.3,-0.3 0.4,-0.4 0,-0.1 0,-0.2 0,-0.2 -0.3,-0.1 -0.7,-0.3 -1.1,-0.3 -0.2,0.4 -0.5,0.9 -1,1 -0.2,0 -0.5,0 -0.7,0 -0.1,0.1 -0.1,0.1 -0.1,0.3 0.1,0.1 0.4,0.5 0.3,0.7 -0.1,0.2 -0.4,0.3 -0.7,0.2 -0.1,-0.2 -0.3,-0.2 -0.4,-0.5 -0.1,-0.3 0,-0.5 -0.1,-0.7 -0.2,-0.2 -0.5,-0.2 -0.8,-0.3 -0.1,0 -0.3,-0.2 -0.4,-0.2 -0.2,0 -1.2,0.3 -1.3,0.4 -0.3,0.2 -0.2,0.7 -0.6,0.8 -0.2,0.1 -0.9,0.2 -1.2,0.2 -0.1,0.1 -0.2,0.1 -0.2,0.2 -0.1,0.3 0,0.9 -0.1,1.2 -0.1,0.1 -0.2,0.1 -0.4,0.1 -0.1,-0.1 -0.1,-0.1 -0.2,-0.2 -0.1,-0.1 -0.1,-0.2 -0.2,-0.3 -0.2,-0.2 -0.8,-0.5 -0.7,-1 0,-0.2 0.1,-0.4 0.2,-0.5 0.1,-0.2 0.5,-0.4 0.4,-0.7 -0.2,-0.4 -1.3,-0.1 -1.5,-0.5 -0.3,-0.3 0.5,-0.6 0.2,-1 -0.1,-0.2 -0.6,-0.6 -0.8,-0.6 0,0.1 -0.1,0.2 -0.1,0.3 -0.1,0.3 0,0.5 -0.1,0.7 -0.1,0.2 -0.4,0.4 -0.5,0.6 -0.1,0.3 0,1 0.1,1.3 0.1,0 0.2,0.1 0.3,0.1 0.5,0.1 1.2,-0.2 1.3,0.3 -0.2,0.1 -1.1,0.6 -1.3,0.5 -0.1,0 -0.1,0 -0.2,0 -0.1,-0.1 -0.2,-0.2 -0.2,-0.4 0,-0.1 0,-0.2 0,-0.3 -0.1,-0.2 -0.4,-0.2 -0.5,-0.5 0,-0.4 -0.1,-0.7 -0.1,-1.1 -0.1,-0.3 -0.5,-0.4 -0.7,-0.5 -0.4,0 -0.9,0.4 -1.2,0.6 -0.4,0 -0.5,-0.1 -0.7,-0.2 -0.2,-0.1 -0.5,0 -0.7,-0.1 -0.3,-0.1 -0.7,-0.4 -0.8,-0.6 -0.1,-0.1 -0.1,-0.3 -0.2,-0.5 -0.2,-0.3 -0.6,-0.5 -0.9,-0.6 -0.7,-0.2 -1.7,0.3 -2,-0.3 -0.1,-0.2 -0.1,-0.5 -0.3,-0.6 -0.6,-0.3 -2.5,0.4 -2.6,-0.4 0.2,-0.1 0.7,-0.3 0.8,-0.5 0.2,-0.2 0,-0.8 -0.1,-1.1 -0.1,0 -0.1,0 -0.1,-0.1 0,0 0,0 0,0 -0.2,0.1 -0.2,0.3 -0.3,0.4 -0.3,0.2 -0.5,0.4 -0.8,0.6 -0.3,0.1 -0.7,0 -0.8,-0.1 -0.2,-0.3 0.5,-0.6 0.2,-0.9 0,-0.1 -0.1,-0.1 -0.2,-0.2 -0.3,-0.2 -0.8,0 -1.1,0 -0.1,0.1 -0.2,0.2 -0.2,0.3 -0.2,0.6 0.3,0.9 0.4,1.3 -0.2,0.2 -0.3,0.4 -0.4,0.6 0,0.1 0,0.2 -0.1,0.3 -0.2,0.3 -0.7,0.3 -1,0.5 -0.2,0.1 -0.5,0.4 -1,0.3 -0.6,-0.1 -0.6,-0.6 -1.4,-0.6 -0.3,0.2 -1.1,0.4 -1.3,0 -0.1,-0.1 -0.2,-0.7 -0.3,-0.9 -0.1,-0.1 -0.2,-0.2 -0.4,-0.2 -0.4,-0.1 -0.9,0.1 -1,-0.2 0,0 0,-0.1 0,-0.2 0.3,-0.2 0.3,-0.8 0.8,-0.9 0,0 0,0 0.1,0 0.1,0.2 0.3,0.4 0.6,0.4 0.5,-0.3 1,-0.2 1.4,-0.6 0.3,-0.3 0.2,-0.4 -0.1,-0.6 -0.1,-0.1 -0.1,-0.3 -0.4,-0.3 -0.1,0.1 -0.2,0.3 -0.5,0.3 -0.2,0.1 -0.6,-0.1 -0.7,-0.2 -0.2,0 -0.3,-0.1 -0.5,-0.1 -0.2,-0.1 -0.2,-0.2 -0.4,-0.3 -0.3,-0.2 -1.3,-0.1 -1.5,0.1 -0.3,0.2 -0.6,0.5 -0.7,0.8 -0.1,0.5 0.3,1.5 -0.2,1.7 -0.2,0.1 -0.4,0 -0.8,0 -0.4,0 -0.7,0.4 -1.2,0.2 -0.4,-0.2 -0.3,-0.7 -0.8,-0.8 -0.2,0 -1.1,-0.3 -1.2,-0.2 -0.1,0 -0.3,0.2 -0.4,0.2 -0.1,0 -1.4,0.2 -1.6,0.2 -0.3,-0.1 -0.5,-0.3 -0.8,-0.4 -0.3,-0.1 -0.8,-0.1 -1,-0.3 -0.2,-0.2 -0.1,-0.5 -0.5,-0.6 -0.3,-0.1 -1,0 -1.1,0.2 0,0.1 -0.1,0.2 -0.1,0.4 -0.1,0 0,0 -0.1,0 -0.6,-0.1 -0.8,-0.5 -1.5,-0.5 -0.3,0.2 -0.6,0.3 -0.8,0.5 -0.3,0.3 -0.7,0.6 -1.1,0.9 -0.2,0.1 -0.3,0.3 -0.5,0.4 -0.3,0.2 -0.9,0.1 -1.3,0.2 -0.3,0.1 -0.5,0.5 -1.1,0.4 -0.5,-0.1 -0.7,-0.3 -1.2,-0.4 -0.4,-0.1 -1,0.1 -1.4,0 -0.3,0 -1,-0.5 -1.2,-0.6 -0.7,0 -0.8,0.4 -1.2,0.6 -0.3,0.2 -1,0.2 -1.5,0.2 -0.6,0 -0.8,-0.3 -1.4,-0.4 -0.3,0 -1.7,0 -1.9,0.1 -0.2,0.1 -0.5,0.3 -0.8,0.3 C 67,60.1 66.8,60 66.6,60 c -0.7,-0.1 -1.2,0.2 -1.5,0.4 -0.2,0.1 -0.5,0.1 -0.6,0.3 -0.1,0.1 0,0.4 0,0.6 -0.1,0.1 -0.2,0.1 -0.3,0.2 -0.3,0.1 -0.7,0 -0.9,0.1 -0.4,0.1 -0.5,0.4 -1,0.5 -1,0 -2,0.1 -3,0.1 -0.5,0.1 -0.7,0.4 -1.1,0.5 -0.4,0.1 -0.7,-0.2 -1,-0.2 -0.3,0 -0.6,0.2 -0.8,0.3 -0.6,0.1 -0.7,-0.3 -1.3,-0.2 -0.2,0 -0.4,0.2 -0.5,0.2 -0.6,0.1 -1.4,0.1 -1.8,0 -0.1,-0.1 -0.2,-0.2 -0.2,-0.2 -0.1,-0.2 -0.1,-0.3 -0.2,-0.4 -0.1,-0.1 -0.4,-0.2 -0.5,-0.3 -0.2,0 -0.2,0 -0.4,0 -0.3,0.1 -0.4,0.3 -0.6,0.4 0,0.5 0.3,0.8 0.8,1 0.3,0.1 0.7,0.1 0.7,0.4 -0.1,0.1 -0.2,0.1 -0.3,0.2 -0.3,0.1 -2.3,0.2 -2.7,0.1 -0.3,-0.1 -0.4,-0.2 -0.9,-0.2 -0.1,0 -0.1,0.1 -0.2,0.1 -0.4,0.3 -0.7,0.9 -1.7,0.7 -0.4,-0.1 -0.6,-0.2 -1,-0.2 -0.1,0.1 -0.3,0.2 -0.4,0.2 -0.3,0.3 -0.7,0.6 -1,0.8 -0.2,0.2 -0.5,0.4 -0.7,0.6 -0.3,0.1 -0.8,0.1 -1.1,0.2 -0.3,0.1 -0.5,0.3 -0.9,0.4 -0.3,0 -0.6,0.1 -1,0.1 -0.3,0.1 -0.5,0.3 -0.7,0.4 -0.2,0.1 -0.4,0.1 -0.7,0.2 -0.2,0.1 -0.4,0.3 -0.6,0.4 -0.4,0.2 -1.2,0 -1.6,0.1 -0.3,0.1 -0.4,0.3 -0.7,0.4 -0.3,0.1 -0.9,0.1 -1.2,0.2 -0.2,0.2 -0.3,0.7 -0.6,0.8 -0.2,0.1 -1.5,0.2 -1.8,0.1 -0.2,0 -0.5,-0.3 -0.7,-0.1 -0.7,0.2 -0.5,1 -1.1,1.1 -0.2,0.1 -0.9,0.2 -1.1,0.2 -0.2,0.2 -0.3,0.6 -0.6,0.8 -0.2,0.1 -0.4,0.1 -0.6,0.2 -0.2,0.1 -0.3,0.2 -0.5,0.3 -0.2,0.1 -0.4,0.1 -0.6,0.2 -0.3,0.1 -0.5,0.4 -0.9,0.5 -0.4,0.1 -0.9,0 -1.4,0.1 -0.1,0 -0.2,0.1 -0.3,0.1 -0.1,0.1 -0.2,0.1 -0.2,0.2 -0.1,0.1 0,0.3 -0.1,0.4 -0.2,0.2 -0.6,0.2 -0.9,0.4 -0.3,0.2 -0.6,0.5 -0.9,0.7 -0.2,0.1 -0.5,0.1 -0.7,0.2 -0.2,0.1 -0.4,0.3 -0.6,0.4 -0.2,0.1 -0.4,0.1 -0.7,0.2 -0.4,0.2 -0.6,0.6 -1.1,0.8 -0.4,0.2 -1.1,0.1 -1.5,0.3 -0.4,0.3 -0.7,0.6 -1.1,0.9 -0.2,0.1 -0.3,0.3 -0.5,0.3 -0.3,0.1 -0.6,0.1 -0.8,0.3 -0.2,0.1 -0.3,0.3 -0.4,0.4 -0.2,0.3 -0.6,0.5 -0.9,0.7 -0.4,0.3 -0.7,0.7 -1.1,0.9 -0.4,0.3 -1.3,0.2 -1.7,0.4 -0.2,0.1 -0.5,0.4 -0.6,0.7 0,0.1 0,0.2 -0.1,0.3 -0.2,0.2 -0.4,0.4 -0.6,0.6 C 10.1,82 9.8,82.2 9.6,82.4 9.3,82.5 9,82.5 8.8,82.7 8.4,82.9 8.2,83.3 7.8,83.4 7.6,83.5 7.4,83.5 7.1,83.6 6.9,83.7 6.9,84 6.8,84.2 6.7,84.4 6.4,84.7 6.1,84.8 5.9,84.9 5.5,84.9 5.3,85.1 5,85.2 4.3,85.8 4.1,86 3.8,86.3 4,86.7 3.8,87.1 3.6,87.4 3.2,87.6 2.9,87.9 2.7,88.1 2.7,88.3 2.6,88.5 2.4,88.8 1.7,89.5 1,89.2 0.9,89.1 0.7,89 0.6,88.9 0.5,88.8 0.3,88.7 0.2,88.6 0.1,88.4 0,87.7 0,87.4 0.1,87 0.4,86.9 0.6,86.6 0.7,86.4 0.7,86.2 0.8,86 1,85.8 1.3,85.6 1.5,85.4 1.8,85 1.5,84.6 1.7,84.1 1.8,83.8 2,83.6 2.2,83.3 2.3,83.1 2.3,83 2.4,82.8 2.6,82.5 3.1,82.5 3.4,82.3 3.9,81.8 4.5,81.4 5,80.9 5.2,80.7 5.1,80.4 5.3,80.2 5.5,79.9 6,79.7 6.2,79.4 c 0.2,-0.3 0.2,-0.6 0.4,-0.9 0.2,-0.2 0.5,-0.4 0.7,-0.6 0.3,-0.3 0.6,-0.6 1,-0.8 0.4,-0.2 0.8,-0.2 1.2,-0.5 0.2,-0.1 0.3,-0.3 0.4,-0.5 0,-0.1 0,-0.2 0.1,-0.3 0.4,-0.4 0.8,-0.7 1.2,-1.1 0.3,-0.2 0.7,-0.2 0.9,-0.3 0.2,-0.2 0.2,-0.5 0.3,-0.7 0.7,-0.6 1.5,-1.2 2.2,-1.9 0.5,-0.3 1.4,-0.1 2,-0.3 0.7,-0.3 1.1,-1.1 1.7,-1.3 0.4,-0.2 1.1,-0.1 1.5,-0.3 0.5,-0.4 1,-0.9 1.5,-1.3 0.2,-0.3 -0.3,-0.6 0,-1 0.2,-0.2 0.5,-0.4 0.8,-0.5 0.2,0 0.3,0 0.4,-0.1 0.3,-0.2 0.5,-0.5 0.8,-0.7 0.3,-0.2 0.6,-0.2 1,-0.3 0.1,-0.1 0.2,-0.2 0.4,-0.2 0.3,-0.1 0.6,0.2 1,0 0.6,-0.3 0.6,-0.9 1.1,-1.3 0.1,-0.1 0.3,-0.3 0.5,-0.3 0.2,-0.1 0.5,-0.1 0.7,-0.2 0.2,-0.1 0.3,-0.3 0.5,-0.3 0.2,-0.1 0.4,-0.1 0.7,-0.2 0.2,-0.1 0.4,-0.3 0.7,-0.4 0.5,-0.1 0.7,0.2 1.2,0.2 0.1,0 0.1,-0.1 0.2,-0.1 0.3,-0.2 0.5,-0.5 1,-0.7 0.3,-0.1 0.6,-0.1 1,-0.1 0.7,0 1.4,0 1.9,-0.2 0.1,-0.1 0.2,-0.1 0.2,-0.2 0.1,-0.3 -0.1,-0.7 0.3,-0.8 0.2,-0.1 0.5,0 0.8,-0.1 0.3,-0.4 0.5,-0.9 1,-1.1 0.3,-0.1 0.6,-0.1 0.8,-0.3 0.5,-0.3 0.7,-0.7 1.4,-0.8 1,-0.2 1.4,0.6 2.1,0.3 0.2,-0.1 0.4,-0.3 0.6,-0.4 0.3,-0.1 0.6,-0.1 0.8,-0.3 0.5,-0.3 0.8,-0.7 1.2,-1 0.3,-0.2 0.6,-0.5 0.9,-0.7 0.3,-0.1 0.8,-0.1 1.1,-0.2 0.3,-0.1 1,-0.6 1.2,-0.8 0.7,-0.1 0.8,0.5 1.5,0.5 0.3,-0.2 0.8,-0.2 1.1,-0.4 0.3,-0.2 0.2,-0.7 0.6,-0.8 0.3,-0.2 1.2,-0.1 1.6,-0.2 0.3,-0.1 0.4,-0.3 0.7,-0.4 0.3,-0.1 1.9,-0.2 2.4,-0.1 0.3,0.1 0.4,0.2 0.7,0.3 0.2,0.1 0.5,0.1 0.7,0.1 0.3,0.1 0.4,0.2 0.7,0.2 0.2,-0.1 0.4,-0.2 0.5,-0.3 0.2,-0.2 0.2,-0.6 0.3,-0.8 0.3,-0.2 0.6,-0.5 0.9,-0.7 0.3,-0.3 0.8,-0.6 1.6,-0.5 0.6,0.1 0.8,0.6 1.5,0.7 0.2,-0.1 0.6,-0.2 0.8,-0.3 0.3,-0.1 0.6,0 0.8,-0.1 0.2,-0.1 0.4,-0.3 0.7,-0.3 0.3,0 0.5,0.3 0.9,0.2 0.5,-0.1 0.7,-0.4 1.2,-0.5 0.3,0 0.5,0 0.8,0 0.7,0 1.4,0 1.9,-0.2 0.2,-0.2 0.3,-0.7 0.6,-0.8 0.4,-0.3 1.4,0 2,-0.2 0.5,-0.1 0.7,-0.4 1,-0.5 0.6,-0.2 1.6,-0.1 2.2,-0.1 0.5,0 1.2,-0.1 1.4,0.1 0.2,0.2 -0.1,0.5 -0.2,0.7 0,0.1 0.1,0.2 0.1,0.3 0.1,0.1 0.2,0.1 0.3,0.2 0.9,0.2 1.2,-0.4 1.7,-0.5 0.5,-0.1 0.6,0.2 1.1,0.2 0.1,-0.1 0.1,-0.2 0.1,-0.4 -0.1,0 -0.1,-0.1 -0.2,-0.1 -0.4,-0.2 -1.3,0.3 -1.3,-0.4 0.1,0 0.1,-0.1 0.2,-0.1 0.5,-0.3 1.2,0.1 1.7,0.1 0.1,-0.1 0.4,-0.2 0.5,-0.2 0.2,-0.1 0.4,-0.4 0.6,-0.5 0.5,-0.2 1.8,-0.2 2.5,-0.2 0.3,0 0.6,0 0.9,0 0.5,0.1 0.8,0.4 1.3,0.4 0.6,0 1.1,0 1.7,-0.1 0.4,0.1 0.6,0.3 1,0.4 0.2,0.1 0.4,0 0.6,0.1 0.6,0.2 0.4,1.1 1.3,1.1 0.3,-0.4 0.6,-0.9 1.1,-1.1 0.3,-0.1 0.9,-0.1 1.4,-0.1 0.8,0 1.5,-0.1 2.3,-0.1 0.4,0 0.8,-0.1 1.1,0 0.4,0.1 0.6,0.3 1,0.4 0.4,0.1 0.8,-0.4 1.2,-0.5 0.5,-0.1 0.7,0.2 1,0.3 0.2,0.1 0.5,0.1 0.7,0.1 0.2,0.1 0.9,0.5 1.1,0.6 0.5,0 0.7,-0.3 1.2,-0.3 0.3,0 0.5,0.2 0.7,0.3 0.2,0.1 0.5,0.1 0.7,0.1 0.1,0 0.3,0.2 0.4,0.2 0.4,0.1 0.6,-0.2 1,-0.1 0.1,0.2 0.3,0.5 0.6,0.6 0.5,0.3 1.7,-0.1 2.3,0.1 0.6,0.2 0.4,1.1 0.6,1.6 0.7,0.3 0.9,-0.1 1.4,-0.3 0.4,-0.1 0.9,0 1.4,-0.1 0.4,-0.1 0.6,-0.3 1,-0.3 0.1,0 0.2,0.1 0.2,0.1 0.2,0.2 0.1,0.4 0.5,0.5 0.4,0.2 1.4,-0.1 1.8,0.1 0.6,0.2 1,0.8 1.5,1.1 0.3,0.1 0.7,0.1 1,0.3 0.2,0.1 0.2,0.4 0.5,0.5 0.3,0.1 0.8,-0.3 1.3,-0.2 0.2,0.1 0.3,0.2 0.5,0.3 0.3,0.1 0.8,0.1 1,0.3 0.1,0.2 0.1,0.4 0.3,0.6 0.2,0.2 0.5,0.3 0.8,0.5 0.2,0 0.3,0 0.5,0 0.2,-0.1 0.4,-0.3 0.7,-0.3 0.2,0 0.4,0.2 0.5,0.2 0.3,0.1 0.7,0.1 0.9,0.2 0.3,0.2 0.6,0.5 0.9,0.6 0.2,0.1 0.5,0.1 0.7,0.1 0.2,0.1 0.4,0.2 0.6,0.3 0.2,0 0.4,0.1 0.7,0.1 0.2,0.1 0.4,0.3 0.7,0.3 0.2,0.1 0.4,0 0.6,0.1 0.2,0.1 0.3,0.2 0.5,0.3 0.2,0.1 0.4,0 0.6,0.1 0.3,0.1 0.5,0.3 0.8,0.4 0.3,0.1 0.8,0 1.1,0.1 0.1,0.1 0.2,0.1 0.2,0.2 0.2,0.2 0.1,0.5 0.5,0.6 0.3,0.1 0.8,0 1.1,0.1 0.2,0.1 0.4,0.2 0.6,0.3 0.2,0 0.4,0.1 0.7,0.1 0.2,0.1 0.3,0.2 0.5,0.3 0.3,0.1 0.5,0.1 0.8,0.2 0.6,0.4 1.1,0.8 1.7,1.2 0.5,0.2 1.4,-0.1 1.9,0.1 0.3,0.1 0.5,0.3 0.8,0.3 0.4,0.1 0.8,0 1.1,0.1 0.4,0.1 0.6,0.5 1,0.7 0.3,0.2 1,0.1 1.4,0.2 0.1,0.1 0.2,0.1 0.2,0.2 0.2,0.2 0.1,0.5 0.5,0.6 0.2,0.1 0.6,0 1,0.1 0.3,0.1 0.5,0.3 0.8,0.4 0.3,0.1 0.9,0.1 1.2,0.1 0.1,0.1 0.2,0.1 0.2,0.2 0.2,0.2 0.1,0.5 0.5,0.6 0.2,0.1 0.7,0 1,0.1 0.3,0.1 0.8,0.4 0.9,0.6 0.3,0.4 -0.1,1.5 0.5,1.7 0.3,0.1 1.9,0 2.3,-0.1 0.4,-0.1 0.5,-0.4 1,-0.5 0.2,0 0.4,0 0.7,0 1.5,-0.1 1.3,0.6 2.3,0.8 0.7,0.1 1.7,-0.2 2.3,0 0.2,0.1 0.3,0.2 0.5,0.3 0.2,0.1 0.5,0.1 0.7,0.1 0.2,0.1 0.4,0.2 0.6,0.3 0.3,0.1 0.6,0.1 0.9,0.2 0.5,0.4 1.1,0.7 1.6,1.1 0.5,0.2 1.6,-0.1 2.1,0.1 0.6,0.3 1.1,1.1 1.9,1.2 1,0.2 1.2,-0.4 2.1,-0.5 0.1,0.1 0.2,0.1 0.2,0.1 0.1,0.1 0,0.4 0.1,0.6 0.5,0.2 1,0 1.5,0.1 0.4,0.1 0.6,0.3 1,0.4 0.4,0 0.6,-0.4 1.1,-0.3 0.3,0.1 0.3,0.5 0.6,0.6 0.2,0.1 0.5,0 0.7,0 0.3,-0.2 0.7,-0.5 1.4,-0.4 0.3,0 0.5,0.2 0.8,0.2 0.4,0.1 0.6,-0.2 1,-0.1 0.3,0 0.5,0.2 0.8,0.3 0.4,0 0.8,0 1.1,0 0.5,0.1 0.8,0.4 1.3,0.4 2.6,-0.1 5.2,-0.2 7.8,-0.3 0.5,0.1 0.8,0.3 1.3,0.4 0.3,0 0.5,0 0.8,0 0.5,0 1.3,0 1.8,-0.1 0.2,-0.1 0.4,-0.2 0.6,-0.3 0.4,-0.1 0.5,0.1 0.7,0.2 0.3,0.1 1.1,0.1 1.5,0 0.5,-0.1 0.7,-0.4 1.1,-0.5 0.7,-0.2 1,0.6 1.9,0.4 0.4,-0.1 0.6,-0.3 0.9,-0.4 0.2,-0.1 0.5,-0.1 0.7,-0.2 0.3,-0.1 0.4,-0.3 0.8,-0.4 0.4,-0.1 2,-0.1 2.2,0 0.2,0.1 0.2,0.4 0.6,0.4 0.1,-0.2 0.3,-0.4 0.6,-0.5 0.5,-0.1 1.3,0 1.7,-0.2 0.3,-0.1 0.5,-0.5 1,-0.4 0.6,0.1 0.7,0.6 1.4,0.6 0.2,-0.2 0.2,-0.6 0.3,-0.9 0.2,-0.1 0.3,-0.2 0.7,-0.3 0.2,0.1 0.4,0.1 0.5,0.2 0.5,0.2 0.8,0.8 1.8,0.6 0.4,-0.1 0.6,-0.3 1,-0.3 0.4,0.2 0.2,0.2 0.5,0.5 0.1,0.2 0.4,0.3 0.5,0.6 0.1,0.3 0,0.7 0.1,1 0,0.1 0.1,0.2 0.1,0.3 0.1,0 0.2,0.1 0.3,0.1 0.7,0 0.7,-0.3 1.2,-0.4 0.5,-0.1 1,0 1.2,-0.3 0.3,-0.6 -0.3,-1.8 0.1,-2.3 0.2,-0.3 1,-0.3 1.5,-0.4 0.1,-0.1 0.1,-0.1 0.2,-0.2 0,-0.5 -0.4,-0.5 -0.3,-1 0.2,-0.1 0.3,-0.1 0.5,-0.2 0.2,0 0.4,0 0.6,-0.1 0.3,-0.1 0.5,-0.3 0.9,-0.4 0.6,-0.1 0.9,0.3 1.3,0.3 0.6,0.1 0.9,-0.5 1.1,-0.7 0,-0.2 0,-0.3 -0.1,-0.5 -0.1,0 -0.4,-0.1 -0.4,-0.2 0.1,-0.1 0.1,-0.2 0.2,-0.3 0.1,0 0.2,0 0.3,0 0.1,0 0.2,0.1 0.3,0.1 0.3,0.1 0.7,0 0.9,0.1 0.2,0.1 0.2,0.4 0.5,0.5 0.2,0.1 0.4,-0.1 0.6,-0.1 0.2,-0.1 0.4,-0.1 0.6,-0.1 0.3,-0.1 0.3,-0.2 0.8,-0.3 0.1,0.1 0.2,0.1 0.3,0.1 0.3,0.2 0.5,0.5 1,0.6 0.2,0 0.4,-0.1 0.5,-0.1 0.2,-0.1 1.1,-0.9 1.2,-1.1 0.2,-0.3 0,-0.8 0.2,-1 0.1,-0.2 0.5,-0.5 0.8,-0.6 0.2,-0.1 0.4,-0.1 0.6,-0.2 0.2,-0.1 0.2,-0.5 0.5,-0.6 0.5,-0.2 1.1,0.5 1.5,0.6 0.9,0.3 1.7,-0.3 1.9,-0.8 0.1,-0.2 0.1,-0.6 0.1,-0.9 0.1,-0.1 0.2,-0.1 0.3,-0.2 0.2,-0.1 0.4,-0.1 0.7,-0.2 0.2,-0.1 0.3,-0.3 0.5,-0.3 0.2,0 0.3,-0.1 0.5,-0.1 0.3,-0.1 0.5,-0.4 0.9,-0.5 0.4,-0.1 1.4,-0.1 1.8,0 0.2,0.1 0.7,0.5 0.8,0.6 0.3,0.6 -0.2,1.1 -0.2,1.6 0.2,0.1 0.3,0.3 0.6,0.3 0.2,-0.2 0.5,-0.2 0.6,-0.5 0.1,-0.2 0.1,-0.5 0.4,-0.6 0.2,-0.1 0.4,0 0.7,0 0.1,-0.1 0.1,-0.1 0.2,-0.2 0,-0.3 0,-0.4 -0.1,-0.6 -0.1,-0.1 -0.2,-0.2 -0.4,-0.2 -0.5,-0.1 -1,0.1 -1.1,-0.3 0,0 0,0 0,-0.1 0.4,-0.2 0.6,-0.1 1.1,-0.2 0.3,-0.1 0.5,-0.3 0.9,-0.3 0.5,0.3 1,0.6 1.5,0.9 0.1,0 0.2,0 0.3,0 0.2,-0.3 0.3,-0.7 0.7,-0.8 0.1,-0.1 0.2,-0.1 0.3,-0.1 0.5,0 0.8,0.3 1.2,0.2 0.6,-0.1 0.6,-0.4 1.5,-0.5 0.1,0 0.3,0 0.4,0 0.4,0.1 0.5,0.3 1,0.3 0.1,-0.1 0.1,0 0.1,-0.1 0,0 0,0 0,-0.1 -0.1,-0.1 -0.2,-0.3 -0.4,-0.4 -0.2,-0.1 -0.4,-0.1 -0.6,-0.1 -0.2,-0.1 -0.9,-0.5 -1,-0.6 -0.2,-0.3 0,-0.9 -0.6,-0.9 -0.3,0.3 -1.1,0.3 -1.2,-0.1 -0.2,-0.2 -0.1,-0.7 0,-1 0.1,-0.1 0.2,-0.2 0.4,-0.2 0.5,-0.1 0.7,0.3 1.2,0.2 0.1,0 0.3,-0.2 0.4,-0.2 0.3,-0.1 1,-0.1 1.3,0 0.2,0.1 0.3,0.2 0.5,0.3 0.3,0.1 1.1,0.3 1.4,0.2 0,-0.1 0.1,-0.2 0.1,-0.3 0.1,-0.3 -0.1,-0.6 0,-0.9 0.1,-0.1 0.2,-0.3 0.3,-0.4 0.1,-0.2 -0.1,-0.3 -0.1,-0.4 0,-0.1 0,-0.2 0.1,-0.3 0.4,-0.1 0.9,-0.4 1.3,-0.5 0.1,0 0.2,0.1 0.2,0.1 0.2,0.2 0.1,0.4 0.4,0.5 0.1,0 0.2,0 0.3,0 0,0 0,0 0,-0.1 0.2,-0.2 -0.4,-0.5 -0.1,-0.8 0.1,-0.5 0.7,-0.3 1.3,-0.4 0.3,-0.1 0.4,-0.3 0.7,-0.4 0.3,-0.1 1.7,-0.2 2,-0.1 0.6,0.2 0.7,0.8 1.6,0.7 0.1,-0.1 0.2,-0.1 0.2,-0.2 0.2,-0.2 0.1,-0.7 0.2,-0.9 0.1,-0.1 0.2,-0.2 0.4,-0.2 0.4,-0.1 0.7,0.2 1.1,0.1 0.1,-0.2 0.2,-0.6 0.2,-0.9 0.1,-0.1 0.1,-0.1 0.2,-0.2 0.5,-0.2 0.9,0.1 1.3,0.1 0.1,-0.1 0.3,-0.1 0.4,-0.2 0.3,-0.2 0.4,-0.5 0.7,-0.6 0,-0.3 -0.1,-0.5 -0.1,-0.7 0.2,-0.1 0.4,-0.2 0.6,-0.2 1.4,-0.2 1.7,0 1.7,1 0,0.2 0,0.4 0,0.6 -0.1,0.2 -0.3,0.3 -0.2,0.6 0.1,0 0.1,0 0.3,0 0.1,-0.1 0.2,-0.1 0.3,-0.2 0.1,-0.1 0.1,-0.3 0.2,-0.5 0.2,-0.2 0.7,-0.6 1,-0.7 0.5,-0.1 0.7,0.2 1.1,0.1 0.1,-0.2 0.2,-0.4 0.3,-0.6 0.1,-0.1 0.2,-0.2 0.3,-0.3 0.1,-0.2 0.1,-0.4 0.2,-0.6 0.2,-0.2 0.5,-0.2 0.6,-0.4 0,0 0,-0.1 0,-0.2 -0.2,-0.2 -0.4,-0.4 -0.6,-0.6 0,-0.3 0.1,-0.4 0.2,-0.6 0.1,-0.2 0.1,-0.3 0.2,-0.5 0.1,-0.2 0.3,-0.3 0.4,-0.4 0.1,-0.2 0.1,-0.4 0.2,-0.5 0.2,-0.4 0.7,-0.7 1.2,-0.8 0.3,-0.1 1.3,-0.1 1.5,0 0.2,0 0.4,0.3 0.7,0.2 0.2,0 0.3,-0.2 0.5,-0.2 0.4,-0.1 0.8,-0.1 1.2,0 0.1,0 0.1,0.1 0.2,0.1 0.2,0.2 -0.1,0.4 0,0.6 0.1,0.2 0.5,0.5 0.3,0.8 -0.1,0.3 -0.5,0.3 -0.6,0.6 0.4,0.2 0.6,0.4 1.2,0.4 0.4,-0.3 0.7,-0.7 1.1,-1 0.2,-0.2 0.5,-0.4 0.6,-0.6 0.1,-0.3 0.1,-1 -0.1,-1.2 -0.3,-0.3 -1.2,-0.1 -1.4,-0.4 -0.1,-0.1 0,-0.1 0,-0.2 0.6,-0.3 1.1,-0.1 1.5,-0.5 0.1,-0.1 0.2,-0.2 0.3,-0.3 0.1,-0.3 -0.2,-0.4 -0.1,-0.6 0.2,-0.1 0.5,-0.2 0.7,-0.3 0.3,-0.2 0.7,-0.5 1.2,-0.3 0.3,0.1 0.3,0.4 0.6,0.5 0.1,0 0.1,0 0.2,0 0.1,-0.1 0.4,-0.2 0.5,-0.3 0.2,-0.2 0.1,-0.6 0.6,-0.6 0.4,0.2 0.8,0.4 1.1,0.8 0,0 0,0 0,0 0.4,-0.4 0,-1.4 0.3,-1.8 0.4,-0.4 0.8,-0.6 1.8,-0.7 0.2,0 0.5,0 0.7,0 0.3,0.1 0.6,0.5 1.1,0.4 0.8,-0.2 1,-1.2 2.2,-1 0.1,0 0.3,0 0.4,0.1 0.1,0.1 0.2,0.1 0.2,0.2 0.3,0.4 -0.2,0.7 -0.4,1 0,0.1 -0.1,0.3 -0.1,0.4 -0.2,0.4 -0.8,0.6 -0.5,1.2 0,0.1 0.1,0.2 0.1,0.3 0.2,0.1 0.3,0.1 0.6,0.1 0.1,-0.1 0.2,-0.1 0.2,-0.2 0.3,-0.3 -0.1,-0.9 0.4,-1.1 0.2,-0.2 0.9,-0.2 1.2,-0.2 0.1,-0.1 0.2,-0.1 0.2,-0.2 0,-0.1 0.1,-0.3 0.1,-0.4 0.1,-0.2 0.4,-0.3 0.5,-0.5 0.1,-0.2 0.1,-0.3 0.2,-0.5 0.1,-0.2 0.4,-0.2 0.5,-0.4 -0.5,-0.2 -0.7,-0.5 -0.6,-1.2 0,-0.2 0,-0.4 0,-0.6 0.1,-0.2 0.3,-0.3 0.4,-0.5 0.1,-0.2 0,-0.3 0.1,-0.5 0.1,-0.2 0.4,-0.4 0.6,-0.5 0.3,-0.1 0.7,0 1,-0.1 0.3,-0.4 0.9,-1.5 1.8,-1.1 0.3,0.1 0.3,0.6 0.7,0.7 0.1,0.1 0.2,0.1 0.4,0 0.1,-0.1 0.2,-0.1 0.3,-0.2 0.1,-0.2 0.2,-0.8 0.2,-1 0.1,-0.1 0.2,-0.1 0.3,-0.2 0.2,0 0.3,-0.1 0.5,-0.1 0.2,-0.1 0.4,-0.2 0.6,-0.3 0.3,-0.1 0.5,0.1 0.7,0.2 0.3,0.1 0.5,0.1 0.8,0.2 0.2,0.1 0.3,0.3 0.5,0.5 0.1,0 0,0 0.1,0 0.2,-0.1 0.7,-0.7 0.7,-0.9 0.1,-0.3 -0.1,-0.8 0.3,-0.9 0.1,0 0.2,0 0.3,0 0.4,0.1 1,0.6 0.7,1.1 -0.1,0.2 -0.4,0.4 -0.5,0.7 -0.1,0.6 0.3,0.8 0.4,1.2 -0.1,0.1 -0.1,0.2 -0.2,0.2 -0.1,0 -0.3,0.1 -0.4,0.1 -0.1,0.1 -0.2,0.2 -0.2,0.2 0,0.4 0,0.7 0.2,1 0.1,0 0.1,0 0.2,0 0.4,-0.5 0.8,-0.5 1.7,-0.7 0.1,-0.1 0.2,-0.1 0.2,-0.2 0.1,-0.2 0.1,-0.3 0.2,-0.5 0.2,-0.3 0.8,-0.4 0.8,-0.9 -0.1,0 -0.1,-0.1 -0.1,-0.2 -0.2,-0.3 -0.7,-0.3 -0.7,-0.8 0.4,-0.3 1.2,-1.4 2,-1.1 0.4,0.2 0.5,0.6 1.2,0.5 0.2,-0.3 0.1,-0.6 0.2,-0.9 0.1,-0.3 0.5,-0.4 0.7,-0.6 0.3,0 0.7,0.1 0.8,0.1 0.5,-0.1 0.7,-0.5 1,-0.7 0.3,-0.1 0.6,-0.1 0.8,-0.3 0.1,-0.1 0.1,-0.3 0.2,-0.5 0.1,-0.2 0.3,-0.4 0.5,-0.5 0.3,-0.2 0.7,-0.2 1,-0.4 0.1,-0.1 0.1,-0.2 0.2,-0.2 0,-0.6 -0.2,-1.4 0.5,-1.6 0.4,-0.1 0.9,0 1.4,-0.1 0.4,-0.1 0.6,-0.3 1.1,-0.3 0.3,0.5 0,0.7 -0.3,1 -0.1,0.1 -0.2,0.2 -0.4,0.3 -0.2,0.1 -0.4,0.1 -0.6,0.2 -0.2,0.1 -0.5,0.8 -0.5,1 0.1,0 0.2,0.1 0.3,0.1 0.2,-0.1 0.5,-0.2 0.8,-0.2 0.1,0.1 0.2,0.1 0.3,0.2 0.2,0.2 0.1,0.6 0,0.8 -0.2,0.4 -0.6,0.7 -1.2,0.8 -0.8,0.2 -2,-0.2 -2.3,0.3 -0.4,0.8 0.5,1.4 1.2,1.5 0.7,0.1 1.5,-0.2 2.1,0 0.5,0.1 0.4,0.7 1,0.7 0,0 0,0 0.1,0 0,-0.1 0,-0.1 0,-0.2 -0.8,-0.6 0.5,-1.4 0.9,-1.7 0.2,-0.1 0.4,-0.4 0.8,-0.3 0.4,0.1 0.6,0.3 0.9,0.4 0.3,0.1 0.6,0.1 0.8,0.3 0.1,0.2 0.1,0.3 0.2,0.5 0.1,0.2 0.8,0.5 0.4,0.9 -0.2,0.6 -1.4,0.3 -2,0.5 -0.1,0.1 -0.1,0.1 -0.2,0.2 -0.1,0.3 0.3,0.6 0.7,0.5 0.3,-0.1 0.5,-0.6 1.1,-0.5 0.5,0.1 0.6,0.4 1.3,0.4 0.1,-0.1 0.2,-0.1 0.2,-0.2 0.2,-0.3 0,-0.7 0.1,-1.1 0.1,-0.3 0.3,-0.4 0.5,-0.7 0.1,-0.2 0.1,-0.4 0.2,-0.5 0.1,-0.1 0.2,-0.3 0.2,-0.4 -0.1,-0.2 -0.4,-0.2 -0.7,-0.3 -0.5,-0.2 -0.7,-0.7 -1.3,-0.8 -0.7,0 -1.3,0 -2,0 -0.3,0 -0.6,0.1 -0.8,0 -0.1,0 -0.2,-0.2 -0.2,-0.3 0.1,-0.1 0.1,-0.2 0.2,-0.3 0.1,-0.1 0.2,-0.2 0.4,-0.2 0.3,0 0.6,0 0.9,0 0.2,-0.3 0.4,-0.8 1,-0.6 0.1,0 0.3,0.1 0.3,0.2 0.2,0.2 0.1,0.5 0.5,0.6 0.1,0.1 0.2,0 0.4,0 0.7,0 0.8,-0.3 1.2,-0.4 0.4,-0.2 1.2,0 1.7,-0.2 0.6,-0.2 0.7,-0.7 1.5,-0.8 0.1,0.1 0.2,0.1 0.3,0.1 0.1,0.1 0.2,0.2 0.3,0.2 0.5,0.4 0.9,0.4 1.7,0.2 0.1,-0.1 0.1,-0.1 0.1,-0.2 0.1,-0.1 0,-0.4 0,-0.5 -0.4,-0.1 -1.4,0.1 -1.4,-0.4 0.1,0 0.1,-0.1 0.2,-0.1 0.3,-0.2 1,-0.1 1.2,0 0.1,0 0.2,0.1 0.3,0.1 0.1,0 0.2,0 0.3,-0.1 0.2,-0.2 0.3,-0.6 0.6,-0.7 0.3,-0.1 1.9,-0.2 2.3,-0.1 0.3,0.1 0.4,0.2 0.7,0.2 0.1,-0.1 0.1,-0.1 0.2,-0.2 0,-0.2 0.1,-0.3 0,-0.5 -0.1,-0.3 -0.6,-0.6 -1,-0.7 -0.4,-0.1 -0.9,0 -1.1,-0.1 -0.3,-0.1 -0.3,-0.5 -0.5,-0.7 -0.3,-0.3 -0.9,-0.5 -1,-0.9 -0.4,-1 0.6,-1.3 1,-1.8 0.2,-0.3 0.1,-0.6 0.4,-0.7 0.1,-0.1 0.5,-0.1 0.6,-0.1 0.5,0.1 0.3,0.6 0.7,0.7 0.1,0.1 0.2,0.1 0.4,0 0.1,-0.1 0.2,-0.1 0.3,-0.2 0.1,-0.1 0.1,-0.2 0.1,-0.3 -0.5,-0.4 -0.7,-0.8 -0.5,-1.5 0.2,-0.1 0.3,-0.2 0.7,-0.3 0.5,0.3 1.2,0.4 1.2,1.1 -0.1,0.1 -0.1,0.2 -0.1,0.2 -0.2,0.2 -0.4,0.3 -0.4,0.7 0.2,0.1 0.3,0.3 0.5,0.4 0.1,0 0.1,0 0.2,0.1 0.2,0 0.1,0 0.3,0 0,0 0,-0.1 0,-0.1 0.3,-0.3 -0.1,-0.8 0.1,-1.2 0.1,-0.3 0.6,-0.3 0.9,-0.5 0.2,-0.1 0.5,-0.3 0.6,-0.5 0.3,-0.4 0,-1.1 0.5,-1.3 0.2,-0.1 0.5,-0.1 0.8,-0.1 0.6,0 1.8,-0.2 2.2,0 0.2,0.1 0.4,0.3 0.7,0.3 0.3,0.1 0.6,-0.1 0.7,-0.3 0.2,-0.5 -0.6,-0.5 -0.9,-0.6 -0.4,-0.1 -1.2,-0.7 -1.3,-1.1 0.1,-0.1 0.1,-0.2 0.2,-0.2 0.2,-0.1 1,-0.2 1.4,-0.1 0.3,0 0.6,0.2 0.8,0.2 0.4,0.1 0.5,-0.2 0.9,-0.1 0.4,0.1 0.4,0.2 1,0.2 0.1,-0.1 0.2,-0.1 0.2,-0.2 0.1,-0.1 0.1,-0.4 0,-0.5 -0.5,-0.2 -1.1,0.1 -1.7,0 -0.3,-0.1 -0.4,-0.2 -0.6,-0.3 0,-0.2 -0.1,-0.4 0,-0.5 0.1,-0.1 0.7,-0.6 1,-0.6 0.4,0.1 1.2,0.8 1.5,1 0.8,-0.1 0.9,-0.7 1.5,-0.9 1.3,0 2.5,-0.1 3.8,-0.1 0.4,-0.1 0.6,-0.3 0.9,-0.4 0.3,-0.1 0.6,-0.1 0.8,-0.3 0.3,-0.2 0.5,-0.6 0.9,-0.7 0.3,-0.1 0.9,-0.1 1.1,-0.3 0.2,-0.2 -0.1,-0.4 -0.2,-0.6 -0.1,-0.2 -0.2,-1 -0.1,-1.2 0.1,-0.4 0.9,-0.3 1.1,-0.7 0.2,-0.3 -0.3,-0.6 -0.3,-1 0.4,-0.2 1.4,-0.2 2,-0.1 0.1,0.1 0.2,0.1 0.2,0.2 0.4,0.6 -0.5,0.7 -0.6,1 0.3,0.1 0.6,0.3 0.9,0.4 0.3,0.1 0.5,-0.2 0.8,-0.1 0.1,0.2 0.2,0.4 0.4,0.6 0.1,0.2 0.4,0.3 0.5,0.5 0.1,0.4 -0.3,0.6 -0.4,0.8 -0.1,0.2 -0.1,0.4 -0.2,0.6 -0.2,0.2 -0.5,0.4 -0.7,0.5 -0.3,0 -0.8,-0.1 -1,0 -0.4,0.2 -0.6,0.6 -1.1,0.7 -0.4,0.1 -1.1,0.1 -1.5,0.1 -0.1,0 -0.2,0 -0.3,0 -0.1,0 -0.3,0.1 -0.4,0.1 -0.3,0.4 -0.3,1 -0.2,1.6 0,0.2 0.1,0.6 0,0.8 -0.3,0.5 -1.3,0.2 -2,0.4 -0.4,0.1 -0.7,0.4 -0.9,0.7 -0.2,0.3 -0.1,0.5 -0.5,0.6 -0.3,0.2 -1,0 -1.4,0.1 -0.1,0 -0.2,0.1 -0.3,0.1 -0.1,0.1 -0.2,0.1 -0.2,0.2 0,0.1 -0.1,0.3 -0.1,0.4 -0.1,0.2 -0.4,0.3 -0.5,0.5 -0.1,0.3 -0.1,0.5 -0.4,0.6 -0.3,0.2 -0.9,0.1 -1.1,0.2 -0.4,0.2 -0.1,0.9 -0.4,1.2 -0.2,0.2 -0.5,0.4 -0.7,0.5 -0.3,0.3 -0.6,0.6 -1,0.9 -0.2,0.1 -0.5,0.1 -0.7,0.2 -0.3,0.1 -0.4,0.3 -0.6,0.4 -0.2,0.1 -0.4,0.1 -0.5,0.1 -0.3,0.1 -0.5,0.4 -0.9,0.5 -0.2,0 -0.5,0 -0.7,0.1 -0.1,0 -0.2,0.1 -0.3,0.1 -0.4,0.5 -0.5,1.1 -1.2,1.3 -0.5,0.2 -1,0 -1.5,0.3 -0.2,0.1 -0.4,0.4 -0.5,0.5 -0.1,0.2 -0.1,0.4 -0.2,0.6 -0.1,0.1 -0.2,0.2 -0.4,0.3 -0.3,0.2 -0.6,0.6 -1,0.8 -0.3,0.1 -0.9,0.2 -1.2,0.2 -0.2,0.2 -0.3,0.7 -0.6,0.8 -0.3,0.2 -1.2,0 -1.6,0.2 -0.5,0.1 -0.8,0.6 -1.2,0.8 -0.2,0.1 -0.5,0.1 -0.8,0.3 -0.2,0.1 -0.2,0.4 -0.3,0.6 -0.1,0.2 -0.4,0.4 -0.5,0.6 -0.1,0.3 -0.1,0.5 -0.4,0.6 -0.2,0.1 -0.8,0.1 -1.1,0.2 -0.4,0.1 -0.3,0.8 -0.4,1.1 -0.1,0.1 -0.2,0.1 -0.3,0.2 -0.2,0.1 -0.5,0.1 -0.7,0.2 -0.5,0.3 -0.7,0.7 -1.4,0.8 -0.7,0.2 -1.1,-0.2 -1.4,-0.3 -0.2,-0.1 -0.5,-0.1 -0.7,0 -0.2,0.1 -0.2,0.4 -0.3,0.5 -0.1,0.2 -0.4,0.4 -0.5,0.6 -0.1,0.2 -0.1,0.4 -0.2,0.5 -0.2,0.2 -0.5,0.5 -0.8,0.6 -0.2,0.1 -0.5,0.1 -0.7,0.2 -0.3,0.2 -0.5,0.5 -0.8,0.7 -0.3,0.2 -0.8,0.2 -1.1,0.4 -0.2,0.1 -0.3,0.3 -0.5,0.4 -0.2,0.2 -0.5,0.3 -0.7,0.5 -0.1,0.1 -0.2,0.3 -0.4,0.3 -0.2,0.1 -0.4,0.1 -0.7,0.2 -0.2,0.1 -0.3,0.3 -0.5,0.3 -0.2,0 -0.4,0.1 -0.6,0.1 -0.3,0.1 -0.5,0.4 -0.9,0.5 -1,0.2 -1.5,-0.7 -2.2,-0.3 -0.3,0.1 -0.6,0.4 -0.7,0.7 -0.1,0.2 -0.1,0.3 -0.2,0.5 -0.1,0.1 -0.3,0.2 -0.4,0.4 -0.1,0.2 0,0.3 -0.1,0.5 -0.1,0.2 -0.4,0.4 -0.6,0.6 -0.3,0.2 -0.6,0.2 -0.9,0.3 -0.2,0.1 -0.4,0.3 -0.6,0.4 -0.2,0.1 -0.5,0.1 -0.7,0.2 -0.5,0.3 -1,0.9 -1.5,1.2 -0.2,0.1 -0.5,0.1 -0.8,0.2 -0.2,0.1 -0.4,0.2 -0.5,0.3 -0.5,0.2 -1.1,-0.2 -1.4,-0.1 -0.2,0.1 -0.3,0.6 -0.5,0.7 -0.2,0.1 -0.4,0.3 -0.6,0.4 -0.3,0.1 -0.6,0.1 -0.8,0.3 -0.3,0.2 -0.5,0.6 -0.9,0.7 -0.5,0.2 -0.9,-0.1 -1.4,-0.1 -0.1,0.2 -0.3,0.5 -0.5,0.6 -0.2,0.1 -0.6,0 -0.7,0.2 -0.2,0.3 0,0.6 -0.4,0.8 -0.5,0.3 -1.4,0 -1.6,-0.2 -0.1,-0.2 -0.1,-0.5 -0.2,-0.6 -0.1,0 0,0 -0.1,0 -0.3,0.4 0.1,1.5 -0.4,1.7 -0.1,0.1 -0.1,0.1 -0.3,0.1 -0.1,-0.1 -0.2,-0.1 -0.3,-0.1 -0.3,-0.1 -0.5,-0.5 -0.9,-0.5 -0.3,-0.1 -0.6,0.1 -0.7,0.2 -0.2,0.3 0,0.9 -0.1,1.2 -0.1,0.3 -0.4,0.5 -0.6,0.7 -0.4,0.4 -0.9,0.9 -2,0.7 -0.5,-0.1 -0.7,-0.6 -1.3,-0.6 -0.1,0.1 -0.1,0.1 -0.2,0.2 -0.1,0.3 0,0.6 -0.2,0.8 -0.2,0.3 -0.7,0.5 -0.9,0.8 -0.2,0.3 -0.1,0.6 -0.5,0.8 -0.3,0.2 -0.9,0.1 -1.2,0.2 -0.2,0.1 -0.3,0.3 -0.5,0.3 -0.2,0.1 -0.5,0.1 -0.7,0.2 -0.3,0.1 -0.4,0.3 -0.8,0.4 -0.9,0 -1.9,0.1 -2.8,0.1 -0.4,0 -0.9,0 -1.1,0.1 -0.3,0.2 -0.2,1.2 -0.3,1.5 -0.1,0.1 -0.2,0.2 -0.4,0.2 -0.4,0.1 -0.7,-0.2 -1.1,-0.1 -0.2,0.4 -0.5,0.8 -1,1.1 -0.3,0.1 -0.6,0.1 -0.8,0.3 -0.4,0.2 -0.6,0.7 -1.2,0.8 -0.6,0.2 -1.5,0 -2.1,0.1 -0.3,0.1 -0.4,0.3 -0.7,0.4 -0.3,0.1 -1,0.1 -1.3,0.2 -0.3,0.4 -0.5,0.9 -0.9,1.2 -0.4,0.2 -0.9,0.1 -1.4,0.3 -0.2,0.1 -0.4,0.3 -0.6,0.4 -0.2,0.1 -0.4,0.1 -0.7,0.2 -0.2,0.1 -0.3,0.3 -0.5,0.3 -0.2,0 -0.4,0.1 -0.5,0.1 -0.6,0.3 -0.8,0.8 -1.6,0.9 -0.4,0.1 -1.4,0 -1.7,0 -0.1,-0.1 -0.3,-0.2 -0.4,-0.2 -0.4,-0.1 -0.9,0 -1.2,0 -0.1,0.1 -0.1,0.1 -0.2,0.2 -0.2,0.3 0.1,0.7 0,1.1 0,0.1 -0.1,0.2 -0.1,0.3 -0.1,0.1 -0.2,0.2 -0.4,0.2 -0.2,0.1 -0.4,0.1 -0.6,0.2 -0.2,0.1 -0.4,0.3 -0.6,0.4 -0.4,0.1 -0.9,0 -1.2,0.2 -0.2,0.2 -0.5,0.4 -0.7,0.6 -0.3,0.2 -0.6,0.2 -0.9,0.3 -0.2,0.1 -0.4,0.3 -0.6,0.4 -0.3,0.1 -0.8,0 -1.2,0.2 -0.5,0.2 -0.7,0.7 -1.2,0.9 -0.4,0.1 -1,0 -1.5,0.1 -0.5,0.1 -0.7,0.4 -1.1,0.5 -0.4,0.1 -0.8,0 -1.1,0.2 -0.2,0.1 -0.4,0.3 -0.6,0.4 -0.3,0.1 -0.8,0 -1.1,0.1 -0.2,0.1 -0.4,0.3 -0.6,0.4 -0.2,0.1 -0.4,0.1 -0.7,0.2 -0.2,0.1 -0.4,0.3 -0.6,0.4 -0.4,0.1 -0.9,0.1 -1.2,0 -0.1,-0.1 -0.2,-0.1 -0.2,-0.2 -0.2,-0.2 -0.1,-0.5 -0.5,-0.6 -0.3,-0.2 -1.7,-0.1 -1.6,0.3 0.1,0.1 0.2,0.3 0.3,0.5 0.2,1.1 -0.3,1.1 -1.6,1.1 -0.3,0 -0.7,0.1 -1,0 -0.3,-0.1 -0.5,-0.3 -0.8,-0.4 -0.4,-0.1 -0.5,0.1 -0.7,0.3 0,0.5 0.3,0.5 0.4,0.9 -0.4,0.4 -0.7,0.8 -1.6,0.7 -0.5,-0.1 -0.9,0.1 -1,-0.3 0.1,-0.1 0.4,-0.3 0.4,-0.4 -0.3,-0.1 -0.9,-0.1 -1.3,0 -0.1,0.1 -0.1,0.1 -0.1,0.3 0.2,0.1 0.4,0.5 0.2,0.7 -0.2,0.6 -1.2,0.3 -1.9,0.5 -0.3,0.1 -0.5,0.3 -0.8,0.4 -0.5,0.2 -1.6,0.1 -2.2,0.1 -0.3,0 -0.7,0 -0.8,-0.1 -0.7,-0.3 0.1,-1.5 -1.4,-1.2 -0.1,0 -0.2,0.1 -0.4,0.1 -0.2,0.2 -0.3,0.6 -0.4,0.8 -0.2,0.3 -0.6,0.4 -0.6,0.8 0,0 0,0 0,0.1 0.3,0.1 0.6,0.2 0.6,0.5 -0.3,0.3 -0.6,0.9 -1.4,0.6 -0.2,-0.1 -0.4,-0.2 -0.6,-0.3 -0.3,-0.1 -0.7,-0.1 -0.8,-0.3 -0.3,-0.2 0,-0.7 -0.2,-1.1 0,-0.1 -0.1,-0.2 -0.1,-0.3 -0.7,-0.3 -0.9,0.1 -1.3,0.4 0,0.3 0.2,0.4 0.1,0.7 -0.1,0.2 -0.3,0.3 -0.3,0.5 -0.1,0.2 -0.1,0.3 -0.2,0.5 -0.1,0.1 -0.2,0.2 -0.3,0.3 -0.2,0.3 0,0.8 -0.2,1.1 -0.1,0.2 -1.2,1 -1.4,1.1 -0.3,0.1 -0.7,0.1 -1.1,0.2 -0.6,0.1 -0.9,0.7 -1.9,0.5 -0.5,-0.1 -0.4,-0.5 -0.8,-0.6 -0.2,-0.1 -0.4,0.1 -0.6,0.1 -0.2,0.1 -1.2,0.1 -1.5,0.1 -0.6,-0.1 -0.8,-0.6 -1.5,-0.6 -0.1,0.1 -0.1,0.1 -0.2,0.1 -0.2,0.2 -0.1,0.6 -0.2,0.8 -0.1,0.1 -0.2,0.1 -0.3,0.2 -0.2,0.1 -0.4,0.4 -0.6,0.5 -0.2,0 -0.3,0 -0.5,0 -0.1,-0.1 -0.1,-0.1 -0.1,-0.3 0.1,0 0.6,-0.3 0.6,-0.4 0.1,-0.2 -0.4,-0.5 -0.3,-0.8 0.1,-0.2 0.2,-0.3 0.2,-0.6 -0.1,0 -0.2,-0.1 -0.3,-0.1 -0.4,0 -0.8,0 -1.1,0 -0.4,-0.1 -0.6,-0.2 -1,-0.2 -0.1,0.2 -0.2,0.5 -0.3,0.6 -0.2,0.1 -0.5,0.1 -0.7,0.2 -0.2,0.1 -0.3,0.2 -0.4,0.3 -0.3,0.2 -0.8,0.2 -0.9,0.4 -0.2,0.2 0,0.7 -0.2,0.9 -0.2,0.3 -1.3,0.4 -1.7,0.1 -0.2,-0.1 -0.2,-0.4 -0.5,-0.5 -1,0.3 -1.4,0.6 -1.7,0.6 z M 351.7,13.6 c 0.7,0 0.7,0.1 1.1,0.3 0,0.2 0.1,0.3 0,0.4 -0.1,0.1 -0.2,0.2 -0.3,0.3 -0.7,0.1 -1.3,-0.2 -1.3,-0.7 0.1,-0.1 0.1,-0.1 0.2,-0.2 0.1,0 0.2,0 0.3,-0.1 z m 4.7,1.6 c 0.1,0.1 0.2,0.2 0.3,0.2 0,0.1 0,0.1 0,0.1 0,0.1 -0.1,0.1 -0.1,0.1 -0.1,0 -0.2,0 -0.3,0 -0.1,0 -0.1,-0.1 -0.2,-0.2 0,-0.1 0,-0.1 0.1,-0.2 0,-0.1 0,0 0.1,-0.1 0,0.2 0,0.1 0.1,0.1 z m -5.3,3.5 c 0.3,0.2 0.6,0.3 0.6,0.7 -0.1,0.1 -0.1,0.1 -0.1,0.2 -0.1,0.1 -0.3,0.2 -0.5,0.3 -0.6,0 -0.5,-1 -0.2,-1.2 0,0 0.1,0 0.2,0 z m -23.7,2.5 c 0.2,0 0.4,0 0.5,0.1 0.2,0.3 -0.5,0.3 -0.8,0.4 -0.3,0.1 -0.3,0.4 -0.6,0.4 -0.4,0 -0.8,0.1 -1.2,0.1 -0.3,0.1 -0.3,0.4 -0.7,0.5 -0.1,0 -0.1,0 -0.2,0 -0.1,-0.1 -0.1,-0.1 -0.2,-0.1 0,0 0,-0.1 0,-0.2 0.1,0 0.2,-0.1 0.3,-0.2 0.2,-0.1 0.4,0 0.6,-0.1 0.2,-0.1 0.2,-0.3 0.5,-0.4 0.4,0 0.8,-0.1 1.2,-0.1 0.2,-0.1 0.2,-0.2 0.4,-0.3 0.1,0 0.1,0 0.2,-0.1 z m -3,1.9 c 0.6,0 1.2,0 1.7,0.1 0.1,0.1 0.1,0.2 0.2,0.2 -0.1,0.3 -0.4,0.5 -0.3,0.8 0.1,0.3 0.4,0.4 0.5,0.7 0.2,0.4 -0.5,0.9 -0.9,1 -0.3,0 -0.3,-0.3 -0.4,-0.4 -0.1,-0.2 -0.5,-0.6 -0.7,-0.7 -0.4,-0.1 -1.5,0 -2,0 -0.1,-0.1 -0.2,-0.1 -0.2,-0.3 0.1,-0.1 0.1,-0.2 0.2,-0.3 0.3,-0.3 0.7,-0.5 1,-0.8 0.3,-0.2 0.7,-0.2 0.9,-0.3 z m -4.7,3.5 c 0.4,0 0.6,0.1 0.7,0.3 0.1,0.1 0.1,0.3 0.1,0.4 0,0.7 -0.4,0.8 -0.8,1.1 -0.6,0.5 -0.6,0.6 -1.8,0.7 -0.2,0 -0.5,0.1 -0.7,0 -0.2,-0.1 -0.3,-0.3 -0.5,-0.4 -0.2,-0.1 -0.4,0 -0.6,0 -0.1,0 -0.2,0 -0.4,0 -0.5,0.1 -0.6,0.3 -0.9,0.5 -0.3,0.1 -1,0 -1.1,0.3 -0.2,0.3 0.5,0.6 0.2,0.9 -0.1,0.2 -0.3,0.3 -0.4,0.4 -0.2,0.2 -0.1,0.6 -0.4,0.7 -0.2,0.2 -0.7,0.1 -1.1,0.2 -0.3,0.1 -0.4,0.3 -0.6,0.4 -0.2,0.1 -0.4,0.1 -0.7,0.2 -0.3,0.2 -0.2,0.7 -0.6,0.8 -0.1,0.1 -0.2,0 -0.3,0.1 -0.9,0.2 -1.1,-0.3 -1.7,-0.4 -0.4,0 -0.6,0.3 -1,0.3 -0.1,-0.1 -0.2,-0.1 -0.2,-0.2 -0.1,-0.1 -0.1,-0.4 -0.1,-0.6 0,-0.4 -0.2,-1.4 0,-1.7 0.1,-0.1 0.4,-0.2 0.6,-0.3 0.2,0 0.4,0 0.7,0 1.4,-0.1 1.2,0.6 2.1,0.8 0.3,0.1 1,0 1.2,-0.1 0.2,-0.1 0.6,-0.5 0.2,-0.7 -0.2,-0.1 -0.4,-0.1 -0.6,-0.2 -0.2,-0.2 -0.2,-0.4 -0.3,-0.6 -0.1,-0.1 -0.3,-0.3 -0.2,-0.4 0.1,-0.5 1,-0.1 1.4,-0.2 0.2,-0.4 0.5,-0.9 1.2,-1 0.1,0.1 0.4,0.4 0.5,0.4 0.3,0.1 0.6,-0.2 0.9,-0.3 0.4,0 0.8,0 1.1,0 0.4,-0.1 0.6,-0.3 1.1,-0.4 0.1,0 0.1,0 0.2,0 0.2,0.1 0.2,0.2 0.5,0.3 0.3,-0.3 0.6,-0.7 1.1,-0.9 0.2,-0.1 0.4,-0.1 0.7,-0.2 0.2,-0.1 0.3,-0.2 0.5,-0.3 -0.2,0.2 -0.1,0.2 0,0.1 z m 17.2,1 c -0.1,0.2 -0.1,0.4 -0.3,0.6 -0.2,0 -0.3,0.1 -0.5,0.1 -0.2,-0.1 -0.5,-0.2 -0.6,-0.4 -0.1,-0.2 0.1,-0.4 0.2,-0.5 0.3,-0.3 0.6,-0.5 1,-0.8 1.3,-0.1 0.4,0.7 0.2,1 z m -2.6,-0.2 c 0,0.1 0,0.1 0,0.1 0,0.1 0,0.1 -0.1,0.1 -0.3,0.1 -0.5,-0.3 -0.7,-0.4 0,-0.1 0,-0.1 0,-0.2 0,-0.1 0.1,-0.1 0.1,-0.1 0.4,0.1 0.5,0.3 0.7,0.5 z m -8.9,-0.1 c 1.1,-0.1 2.1,-0.1 2.3,0.7 0,0 -0.1,0.1 -0.1,0.1 -0.2,0.1 -1,0.4 -0.7,0.7 0.3,0.2 0.7,-0.3 1.2,-0.1 0.2,0 0.2,0.1 0.4,0.2 0.1,0.3 0.1,0.6 -0.3,0.7 -0.3,0.2 -1.1,0 -1.5,0.1 -0.3,0.1 -0.6,0.4 -0.9,0.3 -0.4,0 -0.3,-0.3 -0.5,-0.5 -0.2,-0.2 -0.5,-0.1 -0.7,-0.2 -0.2,-0.1 -0.4,-0.3 -0.7,-0.3 -0.1,0 -0.3,0 -0.4,0 -0.4,0.1 -0.3,0.7 -0.7,0.8 -0.3,0.2 -0.8,0.1 -1.1,0 -0.1,-0.1 -0.1,-0.2 -0.2,-0.2 0.1,-0.3 0.4,-0.5 0.3,-0.8 -0.1,-0.3 -0.8,-0.7 -0.5,-1.1 0.1,-0.1 0.2,-0.2 0.3,-0.3 0.9,-0.1 0.8,0.2 1.4,0.3 0.4,0.1 1.4,0 1.7,-0.1 0.2,-0.1 0.3,-0.2 0.5,-0.3 -0.1,0.1 0,0.1 0.2,0 z m 4.6,0.8 c 0.2,0 0.3,0 0.5,0 0.1,0.1 0.2,0.1 0.2,0.3 -0.1,0.1 -0.1,0.1 -0.1,0.2 -0.1,0.1 -0.3,0.2 -0.4,0.3 -0.1,0 -0.2,0 -0.4,0 0,-0.1 -0.1,-0.1 -0.2,-0.2 0,-0.2 0,-0.3 0.1,-0.4 0.1,0 0.3,-0.1 0.3,-0.2 z m -18.9,7 c 0.4,0.1 -0.2,0.6 0,1 0.1,0.2 0.4,0.4 0.5,0.6 0.1,0.2 0.1,0.3 0.2,0.5 0.2,0.2 1.2,0.1 1,0.7 -0.1,0.1 -0.1,0.1 -0.2,0.2 -0.3,0.1 -1.1,0.2 -1.4,0.1 -0.1,-0.1 -0.2,-0.2 -0.4,-0.3 -0.2,0 -0.3,-0.1 -0.5,-0.1 -0.1,0 -0.2,-0.1 -0.3,-0.2 -0.1,-0.3 -0.3,-1.4 -0.1,-1.8 0.1,-0.3 0.6,-0.5 0.9,-0.7 0.2,0 0.3,0 0.3,0 z m -9.2,2.2 c 0.2,0 0.7,0.5 0.7,0.7 0.1,0.3 -0.4,0.6 -0.8,0.4 -0.2,-0.1 -0.4,-0.4 -0.5,-0.6 -0.3,0 -0.6,0 -0.8,-0.1 0,-0.1 -0.1,-0.2 0,-0.3 0,0 0,-0.1 0,-0.1 0.1,0 0.3,0 0.3,-0.1 0.3,0.1 0.9,0 1.1,0.1 z m 12.7,0.8 c 0.4,0.6 0.8,0.5 1.6,0.6 0,0.1 0,0.1 0,0.3 -0.4,0.4 -0.9,1.2 -1.8,0.8 -0.2,-0.5 -0.2,-1.3 0,-1.7 0.2,0 0.2,0 0.2,0 z m -15.7,1.4 c 0.2,0.2 0.5,0.3 0.7,0.5 0.1,0.3 0,0.7 0.2,0.9 0.2,0.2 0.7,0.2 1,0.3 0.2,0.1 0.6,0.3 0.7,0.5 0.2,0.3 0.1,1.2 -0.1,1.4 -0.3,0.1 -0.7,0.1 -0.9,-0.1 0,0 0,0 0,-0.1 0.1,-0.1 0.2,-0.2 0.4,-0.3 -0.1,-0.5 -0.7,-0.2 -1,-0.5 -0.2,-0.2 -0.4,-0.4 -0.5,-0.6 -0.1,-0.2 -0.1,-0.3 -0.2,-0.4 -0.2,-0.2 -0.6,-0.1 -0.8,-0.3 -0.3,-0.1 -0.3,-0.4 -0.4,-0.7 0,-0.1 -0.2,-0.2 -0.2,-0.3 0.1,-0.2 0.7,-0.3 0.9,-0.5 0,0.2 0.1,0.2 0.2,0.2 z m -14.1,6.3 c 0.3,0.2 0.6,0.4 0.9,0.7 0.2,0.2 0.2,0.5 0.4,0.7 0.2,0.2 0.9,0.7 1.2,0.9 0.2,0.1 0.4,0.1 0.6,0.1 0.1,0 0.2,0.1 0.3,0.2 0,0.1 0.1,0.3 0,0.4 -0.2,0.2 -0.6,0.2 -0.8,0.3 -0.1,0.1 -0.2,0.2 -0.3,0.2 -0.1,0.1 -0.3,0.1 -0.4,0.1 -0.5,0 -0.1,-0.3 -0.2,-0.6 -0.1,-0.2 -0.5,-0.6 -0.8,-0.7 -0.1,-0.1 -0.3,-0.2 -0.5,-0.2 -0.6,-0.1 -1,0.6 -1.4,0.8 -0.4,0.1 -0.8,0.1 -1.1,0.2 -0.3,0.1 -0.3,0.3 -0.5,0.4 0.1,0.4 0.6,0.5 0.7,0.9 0.1,0.3 0.1,0.7 -0.1,0.9 -0.1,0.1 -0.2,0.2 -0.2,0.2 -0.1,0.3 0.3,0.4 0.2,0.7 -0.1,0.2 -0.3,0.3 -0.4,0.5 -0.5,0 -0.6,-0.1 -0.9,-0.2 -0.3,-0.8 0,-0.9 0.5,-1.3 0.1,-0.1 0.2,-0.2 0.3,-0.3 0,-0.4 -0.2,-0.4 -0.3,-0.7 -0.1,-0.1 0,-0.3 0,-0.4 0.1,-0.2 -0.1,-0.5 -0.1,-0.7 -0.1,-0.2 -0.4,-0.5 -0.3,-0.7 0,-0.1 0.8,-0.4 0.9,-0.5 0.2,0 0.3,0 0.4,0.1 0.2,0 0.3,0 0.4,0 0.1,-0.1 0.4,-0.2 0.5,-0.3 0.3,-0.4 0.2,-0.8 -0.1,-1.1 0,-0.4 0.4,-0.6 0.5,-0.9 0.4,-0.2 0.5,0.1 0.6,0.3 z m -5.1,4.5 c 0.2,0.1 0.5,0.2 0.6,0.5 0,0 0,0.1 0,0.2 -0.3,0.3 -0.3,0.5 -1,0.5 -0.1,0 -0.2,-0.1 -0.3,-0.1 -0.1,-0.2 -0.3,-0.6 -0.1,-0.8 0,-0.1 0.2,-0.2 0.2,-0.2 0.3,0 0.5,0 0.6,-0.1 z m -11.5,0.8 c 0.2,0 0.4,0 0.6,0.1 0.1,0.1 0.1,0.1 0.1,0.2 -0.1,0.1 -0.1,0.1 -0.2,0.1 -0.2,0.2 -0.7,0.1 -1,0 -0.1,-0.1 -0.1,-0.1 -0.1,-0.2 0.1,-0.1 0.1,-0.1 0.2,-0.1 0.1,0 0.3,0 0.4,-0.1 z m 16.1,-0.2 c 0.4,0.3 0.8,0.6 1.2,0.9 0.1,0.1 0.3,0.2 0.4,0.3 0.2,0.2 0.2,0.4 0.3,0.6 0.1,0.2 0.3,0.3 0.4,0.4 0.1,0.2 0.1,0.3 0.2,0.5 0.2,0.3 0.8,0.6 0.6,1.2 0,0.1 -0.2,0.2 -0.2,0.2 -0.4,0.1 -1.4,0.3 -1.7,0.1 -0.4,-0.1 -0.3,-0.5 -0.4,-0.8 -0.1,-0.1 -0.1,-0.1 -0.2,-0.2 -0.3,0 -0.5,0.1 -0.6,0.3 -0.1,0 -0.1,0 -0.2,0 -0.2,-0.6 -0.2,-1.4 -0.3,-2.2 0,-0.5 0,-0.9 0.2,-1.2 0.1,-0.1 0.2,-0.1 0.3,-0.1 z m 12.5,0 c 0.2,0.2 0.3,0.6 0.1,0.9 -0.6,0.2 -1,-0.1 -1.3,-0.3 0,-0.1 0,-0.1 0,-0.2 0.1,-0.3 0.7,-0.3 0.9,-0.5 0.1,0.1 0.2,0.1 0.3,0.1 z m -22.5,1.6 c 0.1,0 0.2,0.1 0.2,0.1 0.1,0.2 0.2,0.5 0,0.7 0,0.1 0,0.1 -0.1,0.1 -0.7,0 -0.8,-0.3 -1.1,-0.6 0,-0.1 0,-0.2 0.1,-0.3 0.1,0 0.4,-0.1 0.5,-0.1 0.1,0 0.2,0 0.4,0.1 z m 7.2,-0.2 c 0.1,0 0.1,0.1 0.2,0.1 0.1,0.2 0.1,0.4 -0.2,0.5 -0.2,0.1 -1,0.1 -0.9,-0.2 0.1,-0.2 0.3,-0.3 0.5,-0.4 0.1,0 0.2,0 0.4,0 z M 87.7,59.9 c 0.2,0 0.3,0 0.4,0 0.1,0.1 0.2,0.2 0.3,0.3 0.1,0.3 0,0.5 -0.2,0.6 -0.3,0.2 -0.7,0.1 -0.9,-0.1 -0.1,-0.1 -0.2,-0.4 -0.1,-0.5 0.1,-0.2 0.3,-0.2 0.5,-0.3 z m 19.2,1.8 c 0.2,0 0.3,0.1 0.4,0.2 0,0.2 0,0.3 -0.1,0.5 -0.1,0.1 -0.2,0.1 -0.3,0.2 -0.4,0.1 -1.1,0.1 -1.2,-0.1 -0.2,-0.4 1,-0.7 1.2,-0.8 z m 177.4,-4.9 c 0,0.4 -0.9,1.1 -1.3,1.2 -0.5,0.1 -1.2,0.1 -1.8,0.1 -0.2,0 -0.5,0 -0.7,0 -0.2,0 -0.3,-0.1 -0.5,-0.2 -0.1,-0.2 -0.1,-0.4 -0.1,-0.6 0.1,-0.1 0.1,-0.1 0.2,-0.2 0.3,0 0.5,0.1 0.7,0.1 0.6,0.1 1.8,0 2,-0.3 0.2,-0.2 0,-0.7 0.2,-0.9 0.1,-0.1 0.1,-0.1 0.2,-0.2 0.8,0 0.7,0.7 1.1,1 z m -8.9,2.8 c 0.1,0.2 0.2,0.6 0,0.8 -0.1,0.1 -0.3,0.3 -0.7,0.2 -0.2,0 -0.3,-0.2 -0.4,-0.2 -0.4,-0.2 -0.7,-0.5 -0.3,-0.9 0.1,0 0.2,-0.1 0.3,-0.1 0.6,0 0.8,0.1 1.1,0.2 z m -19.6,1.1 c 0.1,0.3 -0.2,0.4 -0.1,0.7 0.1,0.1 0.2,0.3 0.3,0.4 0.3,0.6 -0.8,0.6 -1,0.9 -0.1,0.2 0,0.5 -0.1,0.7 -0.1,0.1 -0.1,0.1 -0.2,0.2 -0.5,0 -0.9,-0.3 -1.5,-0.1 -0.4,0.1 -0.6,0.3 -1,0.3 -0.1,-0.1 -0.4,-0.2 -0.5,-0.3 -0.1,-0.3 0.2,-0.4 0.1,-0.7 -0.1,-0.2 -0.3,-0.3 -0.4,-0.6 -0.1,-0.3 0,-0.7 0.2,-0.8 0.4,-0.2 0.9,0.1 1.4,0.1 0.1,-0.1 0.2,-0.1 0.3,-0.2 0.4,-0.3 0.8,-0.6 1.1,-1 0.1,-0.1 0.3,-0.1 0.4,-0.1 0.5,0 0.9,0.2 1,0.5 z m -131,4.7 c 0.5,0 0.8,0.2 1,0.5 0.2,0.4 0,0.8 -0.5,0.8 -0.1,-0.2 -0.3,-0.3 -0.5,-0.4 -0.3,0 -0.6,0 -0.8,0 -0.1,-0.1 -0.2,-0.2 -0.2,-0.4 0.1,-0.1 0.1,-0.2 0.3,-0.3 0.2,0 0.5,-0.1 0.7,-0.2 z m -3.5,0.3 c 0.6,0 0.7,0.2 1,0.4 0.3,0.1 0.4,0.1 0.7,0.3 0,0.1 0,0 0,0.1 -0.1,0.3 -2.3,0.5 -2.5,0.2 -0.1,-0.1 -0.1,-0.1 -0.1,-0.2 0.2,-0.2 0.3,-0.4 0.5,-0.5 0.2,-0.3 0.3,-0.3 0.4,-0.3 z m 5.5,0.3 c 0.2,0 0.3,0 0.4,0 0.3,0.4 -0.6,0.6 -0.7,0.1 0.1,0 0.2,0 0.3,-0.1 z m 0,0.9 c 0.1,0 0.3,0 0.3,0 0.2,0 0.3,0.1 0.3,0.3 -0.1,0.1 -0.1,0.2 -0.2,0.3 -0.1,0.1 -0.2,0.2 -0.4,0.2 -0.1,0 -0.2,0 -0.4,0 0,-0.1 -0.1,-0.1 -0.2,-0.2 0,-0.2 0,-0.3 0,-0.4 0.3,-0.1 0.4,-0.2 0.6,-0.2 z m 81.3,6.9 c 0.1,0 0.1,0.1 0.2,0.1 0,0.3 -0.2,0.3 -0.3,0.5 -0.1,0.3 0.1,0.6 -0.1,0.8 -0.1,0.3 -0.9,0.4 -1.2,0.6 -0.7,0 -1.1,-0.6 -0.7,-1 0.4,-0.1 1,-0.2 1.3,-0.3 0,-0.1 0.1,-0.3 0,-0.3 0,-0.2 0,-0.3 0.2,-0.3 0,0 0.1,0 0.1,-0.1 0.2,-0.1 0.4,-0.1 0.5,0 z m -44.3,2.4 c 0.3,0 0.5,0.2 0.3,0.4 -0.2,0.2 -0.8,0 -1.2,0.1 -0.3,0.1 -0.6,0.1 -0.8,0.2 -0.5,0.3 -0.6,0.4 -1.4,0.4 0,0 -0.1,-0.1 -0.2,-0.1 0,-0.5 0.8,-0.9 1.2,-1.2 0.9,0 1.4,0.8 2.1,0.2 z m 54,0.8 c 0,0.2 0,0.4 0,0.6 -0.1,0.3 -0.4,0.4 -0.6,0.6 -0.5,0.4 -1,0.9 -1.5,1.3 -0.2,0.2 -0.2,0.7 -0.6,0.8 -0.5,0.1 -1,-0.3 -1.2,-0.4 0,-0.2 0.3,-0.6 0.4,-0.8 0,-0.5 -0.5,-0.6 -0.9,-0.8 -0.1,-0.3 0,-0.6 -0.2,-0.8 0,-0.3 0.3,-0.4 0.5,-0.5 0.6,0 0.4,0.5 0.9,0.6 0.3,0.2 0.7,-0.1 0.8,-0.2 0,-0.1 0.1,-0.2 0.1,-0.3 0.1,-0.4 -0.1,-0.8 0,-1.1 0.1,-0.1 0.1,-0.1 0.2,-0.2 0.1,0 0.2,-0.1 0.3,-0.1 1.3,0 1.8,0.4 1.8,1.3 z m -53.4,2.1 c 0.2,0 0.4,0 0.4,0.1 0.1,0.1 0,0.1 0,0.2 -0.1,0.1 -0.2,0.1 -0.4,0.1 -0.1,-0.1 -0.1,0 -0.2,-0.1 -0.1,-0.1 0,-0.1 0,-0.2 0.1,0 0.1,-0.1 0.2,-0.1 z m 45.1,-0.8 c 0.6,0.1 1.5,-0.2 1.9,0 0.1,0 0.1,0 0.2,0.1 -0.1,0.4 -0.5,0.6 -0.7,0.9 -0.1,0.1 -0.2,0.3 -0.3,0.5 -0.2,0.1 -0.6,0 -0.8,0.1 -0.3,0.1 -0.3,0.5 -0.4,0.7 -0.3,0.1 -1.3,0.4 -1.4,0.4 -0.1,0 -0.3,-0.1 -0.4,-0.2 -0.5,-0.1 -1.3,0 -1.6,0.2 -0.7,0 -0.5,-1 -0.3,-1.3 0.1,0 0,0 0.1,0 0.4,0 0.4,0.1 0.7,0.2 0.4,0.1 1.1,0 1.4,-0.2 0.9,-0.6 0.2,-1.4 -0.9,-1.3 -0.1,0.1 -0.4,0.4 -0.6,0.4 -0.1,-0.1 -0.4,-0.7 -0.1,-0.9 0,-0.1 0,-0.1 0.1,-0.1 0.2,0 0.5,0.1 0.8,0 0.1,0 0.6,-0.3 0.7,-0.3 0.5,0 0.7,0.7 1.6,0.8 z M 197,80.5 c 0,0 0.1,0 0.1,0 0,0 0,0 0,0.1 0,0.6 -0.9,1 -1.2,1.4 -0.1,0 -0.1,0 -0.1,0 -0.1,-0.2 -0.3,-0.7 -0.1,-1 0.1,-0.3 0.8,-0.3 1.1,-0.5 0.2,0 0.2,0 0.2,0 z m 11.7,2.2 c 0.4,0 0.8,0.3 0.9,0.5 0.1,0.2 0,0.5 -0.2,0.6 0,0 -0.1,0 -0.2,0 -0.4,-0.2 -0.8,-0.3 -0.8,-0.9 0.1,-0.1 0.2,-0.2 0.3,-0.2 z"
     id="path60"
     inkscape:connector-curvature="0"
     style="clip-rule:evenodd;fill:#009ee0;fill-rule:evenodd" /></svg>